%TF.GenerationSoftware,KiCad,Pcbnew,10.0.0*%
%TF.CreationDate,2026-08-13T00:34:45+09:00*%
%TF.ProjectId,metric-gauge,6d657472-6963-42d6-9761-7567652e6b69,rev?*%
%TF.SameCoordinates,Original*%
%TF.FileFunction,Copper,L1,Top*%
%TF.FilePolarity,Positive*%
%FSLAX46Y46*%
G04 Gerber Fmt 4.6, Leading zero omitted, Abs format (unit mm)*
G04 Created by KiCad (PCBNEW 10.0.0) date 2026-08-13 00:34:45*
%MOMM*%
%LPD*%
G01*
G04 APERTURE LIST*
%TA.AperFunction,ComponentPad*%
%ADD10R,1.270000X2.540000*%
%TD*%
%TA.AperFunction,ComponentPad*%
%ADD11O,1.270000X2.540000*%
%TD*%
%TA.AperFunction,ComponentPad*%
%ADD12R,1.700000X1.700000*%
%TD*%
%TA.AperFunction,ComponentPad*%
%ADD13C,1.700000*%
%TD*%
%TA.AperFunction,ViaPad*%
%ADD14C,0.600000*%
%TD*%
%TA.AperFunction,Conductor*%
%ADD15C,1.600000*%
%TD*%
%TA.AperFunction,Conductor*%
%ADD16C,0.200000*%
%TD*%
G04 APERTURE END LIST*
D10*
%TO.P,U2,1,GND_1*%
%TO.N,GND*%
X130810000Y-79830000D03*
D11*
%TO.P,U2,2,VCC_2*%
%TO.N,+3V3*%
X133350000Y-79830000D03*
%TO.P,U2,3,SCL_3*%
%TO.N,/SCL*%
X135890000Y-79830000D03*
%TO.P,U2,4,SDA_4*%
%TO.N,/SDA*%
X138430000Y-79830000D03*
%TO.P,U2,5,RES_5*%
%TO.N,/RES*%
X140970000Y-79830000D03*
%TO.P,U2,6,DC_6*%
%TO.N,/DC2*%
X143510000Y-79830000D03*
%TO.P,U2,7,CS_7*%
%TO.N,/CS2*%
X146050000Y-79830000D03*
%TO.P,U2,8,BLK_8*%
%TO.N,/BLK*%
X148590000Y-79830000D03*
%TD*%
D10*
%TO.P,U1,1,GND_1*%
%TO.N,GND*%
X92710000Y-79830000D03*
D11*
%TO.P,U1,2,VCC_2*%
%TO.N,+3V3*%
X95250000Y-79830000D03*
%TO.P,U1,3,SCL_3*%
%TO.N,/SCL*%
X97790000Y-79830000D03*
%TO.P,U1,4,SDA_4*%
%TO.N,/SDA*%
X100330000Y-79830000D03*
%TO.P,U1,5,RES_5*%
%TO.N,/RES*%
X102870000Y-79830000D03*
%TO.P,U1,6,DC_6*%
%TO.N,/DC1*%
X105410000Y-79830000D03*
%TO.P,U1,7,CS_7*%
%TO.N,/CS1*%
X107950000Y-79830000D03*
%TO.P,U1,8,BLK_8*%
%TO.N,/BLK*%
X110490000Y-79830000D03*
%TD*%
D12*
%TO.P,J1,1,Pin_1_1*%
%TO.N,Net-(J1-Pin_1)*%
X160020000Y-87625000D03*
D13*
%TO.P,J1,2,Pin_2_2*%
%TO.N,GND*%
X160020000Y-90165000D03*
%TD*%
D14*
%TO.N,GND*%
X91440000Y-107950000D03*
X91440000Y-109220000D03*
X134620000Y-107950000D03*
X132080000Y-121920000D03*
X132080000Y-120650000D03*
X142240000Y-111760000D03*
X125730000Y-107950000D03*
X151130000Y-93980000D03*
X125730000Y-113030000D03*
X91440000Y-111760000D03*
X133350000Y-114300000D03*
X132080000Y-91440000D03*
X110490000Y-91440000D03*
X110490000Y-93980000D03*
X109220000Y-121920000D03*
X132080000Y-93980000D03*
X125730000Y-106680000D03*
X132080000Y-92710000D03*
X134620000Y-104140000D03*
X109220000Y-120650000D03*
X91440000Y-106680000D03*
X91440000Y-110490000D03*
X149860000Y-93980000D03*
X110490000Y-92710000D03*
%TO.N,+3V3*%
X133350000Y-86130000D03*
%TO.N,/SCL*%
X125730000Y-116840000D03*
X100330000Y-114300000D03*
%TO.N,/SDA*%
X123825000Y-114935000D03*
X101600000Y-111760000D03*
%TO.N,/RES*%
X119380000Y-110490000D03*
X140970000Y-95250000D03*
%TO.N,/DC2*%
X142240000Y-109220000D03*
%TO.N,/CS2*%
X144940000Y-106520000D03*
%TO.N,/BLK*%
X147320000Y-109220000D03*
%TO.N,/DC1*%
X121920000Y-107950000D03*
%TO.N,/CS1*%
X107950000Y-104140000D03*
%TO.N,/BL*%
X133350000Y-102870000D03*
X119380000Y-116840000D03*
%TD*%
%TO.N,+3V3*%
D15*
X133350000Y-80010000D02*
X133350000Y-86130000D01*
%TO.N,/SCL*%
D16*
X138430000Y-113030000D02*
X138430000Y-88900000D01*
X134620000Y-116840000D02*
X138430000Y-113030000D01*
X97790000Y-111760000D02*
X100330000Y-114300000D01*
X135890000Y-86360000D02*
X135890000Y-79830000D01*
X125730000Y-116840000D02*
X134620000Y-116840000D01*
X138430000Y-88900000D02*
X135890000Y-86360000D01*
X97790000Y-80010000D02*
X97790000Y-111760000D01*
%TO.N,/SDA*%
X124460000Y-118110000D02*
X135890000Y-118110000D01*
X123825000Y-114935000D02*
X123825000Y-116135000D01*
X139700000Y-88900000D02*
X138430000Y-87630000D01*
X100330000Y-80010000D02*
X100330000Y-110490000D01*
X123860000Y-117510000D02*
X124460000Y-118110000D01*
X135890000Y-118110000D02*
X139700000Y-114300000D01*
X123825000Y-116135000D02*
X123860000Y-116170000D01*
X139700000Y-114300000D02*
X139700000Y-88900000D01*
X100330000Y-110490000D02*
X101600000Y-111760000D01*
X138430000Y-87630000D02*
X138430000Y-79830000D01*
X123860000Y-116170000D02*
X123860000Y-117510000D01*
%TO.N,/RES*%
X140970000Y-79830000D02*
X140970000Y-95250000D01*
X102870000Y-107950000D02*
X102870000Y-80010000D01*
X105410000Y-110490000D02*
X102870000Y-107950000D01*
X119380000Y-110490000D02*
X105410000Y-110490000D01*
%TO.N,/DC2*%
X142240000Y-109220000D02*
X143510000Y-107950000D01*
X143510000Y-107950000D02*
X143510000Y-79830000D01*
%TO.N,/CS2*%
X146050000Y-79830000D02*
X146050000Y-99060000D01*
X146050000Y-99060000D02*
X144940000Y-100170000D01*
X144940000Y-100170000D02*
X144940000Y-106520000D01*
%TO.N,/BLK*%
X147320000Y-82550000D02*
X148590000Y-81280000D01*
X147320000Y-109220000D02*
X147320000Y-82550000D01*
X148590000Y-81280000D02*
X148590000Y-79830000D01*
%TO.N,/DC1*%
X106680000Y-107950000D02*
X121920000Y-107950000D01*
X105410000Y-106680000D02*
X106680000Y-107950000D01*
X105410000Y-80010000D02*
X105410000Y-106680000D01*
%TO.N,/CS1*%
X107950000Y-80010000D02*
X107950000Y-104140000D01*
%TO.N,/BL*%
X119380000Y-116840000D02*
X133350000Y-102870000D01*
%TD*%
%TA.AperFunction,Conductor*%
%TO.N,GND*%
G36*
X161287933Y-76700566D02*
G01*
X161291992Y-76700698D01*
X161296028Y-76700895D01*
X161316774Y-76702254D01*
X161544071Y-76717152D01*
X161552145Y-76717948D01*
X161553264Y-76718095D01*
X161560158Y-76719003D01*
X161568137Y-76720320D01*
X161777415Y-76761948D01*
X161805901Y-76767615D01*
X161813806Y-76769458D01*
X161821639Y-76771557D01*
X161829376Y-76773903D01*
X161976736Y-76823925D01*
X161976739Y-76823926D01*
X162058944Y-76851831D01*
X162066521Y-76854682D01*
X162074025Y-76857790D01*
X162081409Y-76861136D01*
X162295309Y-76966620D01*
X162295310Y-76966620D01*
X162295336Y-76966633D01*
X162298830Y-76968356D01*
X162305947Y-76972159D01*
X162313018Y-76976241D01*
X162319877Y-76980507D01*
X162521461Y-77115202D01*
X162528021Y-77119903D01*
X162534471Y-77124852D01*
X162540727Y-77129987D01*
X162722984Y-77289823D01*
X162728906Y-77295370D01*
X162734628Y-77301092D01*
X162740175Y-77307014D01*
X162900003Y-77489262D01*
X162905149Y-77495533D01*
X162910090Y-77501972D01*
X162914818Y-77508569D01*
X163049488Y-77710117D01*
X163053767Y-77716998D01*
X163057828Y-77724032D01*
X163061648Y-77731179D01*
X163168861Y-77948585D01*
X163172211Y-77955979D01*
X163173745Y-77959683D01*
X163175317Y-77963479D01*
X163178169Y-77971060D01*
X163256086Y-78200597D01*
X163258438Y-78208348D01*
X163260537Y-78216178D01*
X163262383Y-78224091D01*
X163308367Y-78455268D01*
X163309674Y-78461836D01*
X163310994Y-78469830D01*
X163311877Y-78476536D01*
X163312052Y-78477864D01*
X163312847Y-78485934D01*
X163329102Y-78733937D01*
X163329300Y-78737976D01*
X163329433Y-78742025D01*
X163329500Y-78746096D01*
X163329500Y-121913902D01*
X163329433Y-121917973D01*
X163329300Y-121922022D01*
X163329102Y-121926061D01*
X163312847Y-122174064D01*
X163312052Y-122182134D01*
X163310998Y-122190144D01*
X163310997Y-122190150D01*
X163309674Y-122198162D01*
X163262383Y-122435905D01*
X163260537Y-122443820D01*
X163258438Y-122451650D01*
X163256086Y-122459401D01*
X163178169Y-122688938D01*
X163175317Y-122696519D01*
X163172216Y-122704008D01*
X163168861Y-122711413D01*
X163061648Y-122928819D01*
X163057824Y-122935974D01*
X163053774Y-122942989D01*
X163049488Y-122949881D01*
X162914818Y-123151429D01*
X162910090Y-123158026D01*
X162905149Y-123164465D01*
X162900003Y-123170736D01*
X162740175Y-123352984D01*
X162734628Y-123358906D01*
X162728906Y-123364628D01*
X162722984Y-123370175D01*
X162540736Y-123530003D01*
X162534465Y-123535149D01*
X162528026Y-123540090D01*
X162521429Y-123544818D01*
X162319881Y-123679488D01*
X162312989Y-123683774D01*
X162305974Y-123687824D01*
X162298819Y-123691648D01*
X162081413Y-123798861D01*
X162074008Y-123802216D01*
X162066519Y-123805317D01*
X162058938Y-123808169D01*
X161829401Y-123886086D01*
X161821650Y-123888438D01*
X161813820Y-123890537D01*
X161805905Y-123892383D01*
X161568162Y-123939674D01*
X161560163Y-123940994D01*
X161554953Y-123941680D01*
X161552134Y-123942052D01*
X161544064Y-123942847D01*
X161296061Y-123959102D01*
X161292023Y-123959300D01*
X161287975Y-123959433D01*
X161283903Y-123959500D01*
X130182330Y-123959500D01*
X130147389Y-123954475D01*
X130132390Y-123950070D01*
X130073644Y-123912327D01*
X130072457Y-123910958D01*
X130044977Y-123856083D01*
X130043332Y-123848521D01*
X130040500Y-123822168D01*
X130040500Y-121163710D01*
X158169500Y-121163710D01*
X158169500Y-121163711D01*
X158169500Y-121406288D01*
X158201161Y-121646785D01*
X158263947Y-121881104D01*
X158346062Y-122079346D01*
X158352338Y-122094499D01*
X158356776Y-122105213D01*
X158356777Y-122105215D01*
X158478060Y-122315283D01*
X158478062Y-122315286D01*
X158478281Y-122315615D01*
X158479284Y-122316879D01*
X158625726Y-122507728D01*
X158625730Y-122507733D01*
X158625733Y-122507736D01*
X158625739Y-122507743D01*
X158625747Y-122507751D01*
X158797242Y-122679247D01*
X158797256Y-122679260D01*
X158797262Y-122679265D01*
X158989711Y-122826936D01*
X159199788Y-122948224D01*
X159423900Y-123041054D01*
X159658211Y-123103838D01*
X159838586Y-123127584D01*
X159898710Y-123135500D01*
X159898711Y-123135500D01*
X159898712Y-123135500D01*
X160141283Y-123135500D01*
X160141289Y-123135500D01*
X160189388Y-123129167D01*
X160381789Y-123103838D01*
X160616100Y-123041054D01*
X160840212Y-122948224D01*
X161050289Y-122826936D01*
X161242738Y-122679265D01*
X161414265Y-122507738D01*
X161561936Y-122315289D01*
X161683224Y-122105212D01*
X161776054Y-121881100D01*
X161838838Y-121646789D01*
X161870500Y-121406288D01*
X161870500Y-121163712D01*
X161838838Y-120923211D01*
X161776054Y-120688900D01*
X161683224Y-120464788D01*
X161561936Y-120254711D01*
X161414265Y-120062262D01*
X161414260Y-120062256D01*
X161414259Y-120062255D01*
X161414247Y-120062242D01*
X161242751Y-119890747D01*
X161242743Y-119890739D01*
X161242736Y-119890733D01*
X161242733Y-119890730D01*
X161242728Y-119890726D01*
X161051879Y-119744284D01*
X161050615Y-119743281D01*
X161050286Y-119743062D01*
X161050283Y-119743060D01*
X160840220Y-119621780D01*
X160840207Y-119621773D01*
X160840203Y-119621772D01*
X160616104Y-119528947D01*
X160381781Y-119466160D01*
X160141290Y-119434500D01*
X160141289Y-119434500D01*
X160141288Y-119434500D01*
X159898712Y-119434500D01*
X159898711Y-119434500D01*
X159898710Y-119434500D01*
X159658217Y-119466160D01*
X159423894Y-119528947D01*
X159199790Y-119621774D01*
X159199782Y-119621778D01*
X158989706Y-119743067D01*
X158989697Y-119743073D01*
X158797270Y-119890726D01*
X158797255Y-119890740D01*
X158797247Y-119890747D01*
X158625747Y-120062247D01*
X158625740Y-120062255D01*
X158625726Y-120062270D01*
X158478073Y-120254697D01*
X158478067Y-120254706D01*
X158356778Y-120464782D01*
X158356774Y-120464790D01*
X158263947Y-120688894D01*
X158201160Y-120923217D01*
X158169500Y-121163710D01*
X130040500Y-121163710D01*
X130040500Y-120649999D01*
X130040501Y-120523372D01*
X130004458Y-120272692D01*
X129955479Y-120105881D01*
X129933111Y-120029701D01*
X129933106Y-120029689D01*
X129924198Y-120010184D01*
X129891724Y-119939074D01*
X129891724Y-119939073D01*
X129891724Y-119939072D01*
X129827910Y-119799338D01*
X129827909Y-119799337D01*
X129827904Y-119799328D01*
X129827894Y-119799310D01*
X129713801Y-119621778D01*
X129690981Y-119586269D01*
X129690979Y-119586267D01*
X129525131Y-119394867D01*
X129333731Y-119229019D01*
X129333729Y-119229017D01*
X129120694Y-119092108D01*
X129120670Y-119092094D01*
X129120666Y-119092092D01*
X128890310Y-118986893D01*
X128890298Y-118986888D01*
X128844257Y-118973369D01*
X128793612Y-118958499D01*
X128788466Y-118955192D01*
X128788457Y-118955192D01*
X128760119Y-118936974D01*
X128734834Y-118920725D01*
X128734830Y-118920717D01*
X128729684Y-118917409D01*
X128700669Y-118853849D01*
X128710622Y-118784692D01*
X128756385Y-118731895D01*
X128788489Y-118717238D01*
X128790477Y-118716655D01*
X128794353Y-118715518D01*
X128829270Y-118710500D01*
X135801380Y-118710500D01*
X135801443Y-118710501D01*
X135803347Y-118710501D01*
X135810943Y-118710501D01*
X135969054Y-118710501D01*
X135969057Y-118710501D01*
X136121785Y-118669577D01*
X136171904Y-118640639D01*
X136258716Y-118590520D01*
X136370520Y-118478716D01*
X136370520Y-118478714D01*
X136380728Y-118468507D01*
X136380728Y-118468505D01*
X136381233Y-118468001D01*
X136384454Y-118464778D01*
X136390931Y-118458301D01*
X136390934Y-118458300D01*
X136390937Y-118458295D01*
X140180520Y-114668716D01*
X140259577Y-114531784D01*
X140300501Y-114379057D01*
X140300501Y-114220942D01*
X140300501Y-114213347D01*
X140300501Y-114211663D01*
X140300500Y-114211589D01*
X140300500Y-114197642D01*
X157449500Y-114197642D01*
X157449500Y-114402356D01*
X157481521Y-114604530D01*
X157544780Y-114799221D01*
X157544786Y-114799234D01*
X157637708Y-114981601D01*
X157637712Y-114981608D01*
X157637715Y-114981613D01*
X157758028Y-115147213D01*
X157902786Y-115291971D01*
X158057749Y-115404556D01*
X158068390Y-115412287D01*
X158174942Y-115466578D01*
X158235945Y-115497661D01*
X158244329Y-115501933D01*
X158245927Y-115502869D01*
X158249615Y-115504655D01*
X158251640Y-115505661D01*
X158255406Y-115506723D01*
X158297956Y-115520547D01*
X158355135Y-115539126D01*
X158355136Y-115539127D01*
X158398612Y-115553253D01*
X158445465Y-115568477D01*
X158546557Y-115584488D01*
X158647648Y-115600500D01*
X158647649Y-115600500D01*
X158852351Y-115600500D01*
X158852352Y-115600500D01*
X159054534Y-115568477D01*
X159249219Y-115505220D01*
X159431610Y-115412287D01*
X159532880Y-115338710D01*
X159566636Y-115314186D01*
X159566637Y-115314185D01*
X159597163Y-115292007D01*
X159597273Y-115291927D01*
X159598025Y-115291159D01*
X159741966Y-115147219D01*
X159741968Y-115147215D01*
X159741971Y-115147213D01*
X159741982Y-115147198D01*
X159798260Y-115069738D01*
X159840129Y-115012108D01*
X159862287Y-114981610D01*
X159955220Y-114799219D01*
X160018477Y-114604534D01*
X160050500Y-114402352D01*
X160050500Y-114197648D01*
X160029798Y-114066941D01*
X160018477Y-113995465D01*
X159955218Y-113800776D01*
X159955216Y-113800773D01*
X159955215Y-113800769D01*
X159894381Y-113681379D01*
X159892767Y-113678211D01*
X159862287Y-113618390D01*
X159842098Y-113590602D01*
X159741971Y-113452786D01*
X159597213Y-113308028D01*
X159597212Y-113308027D01*
X159597211Y-113308026D01*
X159442209Y-113195413D01*
X159442205Y-113195410D01*
X159431613Y-113187715D01*
X159431612Y-113187714D01*
X159431610Y-113187713D01*
X159403171Y-113173222D01*
X159374654Y-113158691D01*
X159374653Y-113158691D01*
X159249223Y-113094781D01*
X159054534Y-113031522D01*
X159054532Y-113031521D01*
X159054530Y-113031521D01*
X159054529Y-113031520D01*
X158879995Y-113003878D01*
X158863409Y-113001251D01*
X158852354Y-112999500D01*
X158852352Y-112999500D01*
X158647648Y-112999500D01*
X158647647Y-112999500D01*
X158623327Y-113003351D01*
X158623326Y-113003350D01*
X158445468Y-113031521D01*
X158250777Y-113094780D01*
X158250764Y-113094786D01*
X158068397Y-113187708D01*
X158068385Y-113187715D01*
X157902787Y-113308027D01*
X157902784Y-113308029D01*
X157758029Y-113452784D01*
X157758027Y-113452787D01*
X157637715Y-113618385D01*
X157637708Y-113618397D01*
X157544786Y-113800764D01*
X157544780Y-113800777D01*
X157481522Y-113995465D01*
X157449500Y-114197642D01*
X140300500Y-114197642D01*
X140300500Y-109298848D01*
X141439499Y-109298848D01*
X141470257Y-109453471D01*
X141470264Y-109453502D01*
X141530598Y-109599165D01*
X141530603Y-109599174D01*
X141530613Y-109599191D01*
X141618211Y-109730290D01*
X141618212Y-109730291D01*
X141618217Y-109730297D01*
X141729701Y-109841781D01*
X141729707Y-109841786D01*
X141729711Y-109841789D01*
X141860814Y-109929390D01*
X141860827Y-109929397D01*
X141982288Y-109979707D01*
X142006503Y-109989737D01*
X142006510Y-109989738D01*
X142006510Y-109989739D01*
X142090279Y-110006401D01*
X142161153Y-110020499D01*
X142161156Y-110020500D01*
X142161158Y-110020500D01*
X142318844Y-110020500D01*
X142318845Y-110020499D01*
X142473497Y-109989737D01*
X142619179Y-109929394D01*
X142750289Y-109841789D01*
X142861789Y-109730289D01*
X142949394Y-109599179D01*
X143009737Y-109453497D01*
X143029113Y-109356085D01*
X143037159Y-109315634D01*
X143048901Y-109282354D01*
X143064268Y-109252977D01*
X143086459Y-109222774D01*
X143878713Y-108430521D01*
X143878716Y-108430520D01*
X143990520Y-108318716D01*
X144040639Y-108231904D01*
X144069577Y-108181785D01*
X144110500Y-108029058D01*
X144110500Y-107870943D01*
X144110500Y-107870942D01*
X144110500Y-107139770D01*
X144115521Y-107104843D01*
X144118707Y-107093990D01*
X144156477Y-107035209D01*
X144220031Y-107006180D01*
X144289186Y-107016118D01*
X144296172Y-107019308D01*
X144332339Y-107044418D01*
X144429707Y-107141786D01*
X144429711Y-107141789D01*
X144560814Y-107229390D01*
X144560827Y-107229397D01*
X144706498Y-107289735D01*
X144706503Y-107289737D01*
X144861153Y-107320499D01*
X144861156Y-107320500D01*
X144861158Y-107320500D01*
X145018844Y-107320500D01*
X145018845Y-107320499D01*
X145173497Y-107289737D01*
X145319179Y-107229394D01*
X145450289Y-107141789D01*
X145561789Y-107030289D01*
X145649394Y-106899179D01*
X145709737Y-106753497D01*
X145740500Y-106598842D01*
X145740500Y-106441158D01*
X145740500Y-106441155D01*
X145740500Y-106440973D01*
X145740065Y-106438973D01*
X145738531Y-106431260D01*
X145738531Y-106431259D01*
X145709738Y-106286510D01*
X145709737Y-106286503D01*
X145709735Y-106286498D01*
X145649397Y-106140827D01*
X145649390Y-106140814D01*
X145649379Y-106140797D01*
X145571304Y-106023949D01*
X145556071Y-105992111D01*
X145546165Y-105960474D01*
X145540500Y-105923422D01*
X145540500Y-100487925D01*
X145545522Y-100452992D01*
X145552934Y-100427747D01*
X145584228Y-100375005D01*
X146418713Y-99540521D01*
X146418716Y-99540520D01*
X146495218Y-99464016D01*
X146523475Y-99442866D01*
X146533404Y-99437444D01*
X146550815Y-99433659D01*
X146556539Y-99430534D01*
X146563048Y-99430999D01*
X146601678Y-99422601D01*
X146667140Y-99447025D01*
X146709001Y-99502950D01*
X146711682Y-99510138D01*
X146719500Y-99553472D01*
X146719500Y-108622404D01*
X146714476Y-108657341D01*
X146705136Y-108689148D01*
X146689262Y-108723102D01*
X146610613Y-108840807D01*
X146610603Y-108840824D01*
X146610598Y-108840833D01*
X146550264Y-108986496D01*
X146550257Y-108986527D01*
X146519500Y-109141150D01*
X146519500Y-109141153D01*
X146519500Y-109298846D01*
X146519500Y-109298848D01*
X146519499Y-109298848D01*
X146550257Y-109453471D01*
X146550264Y-109453502D01*
X146610598Y-109599165D01*
X146610603Y-109599174D01*
X146610613Y-109599191D01*
X146698211Y-109730290D01*
X146698212Y-109730291D01*
X146698217Y-109730297D01*
X146809701Y-109841781D01*
X146809707Y-109841786D01*
X146809711Y-109841789D01*
X146940814Y-109929390D01*
X146940827Y-109929397D01*
X147062288Y-109979707D01*
X147086503Y-109989737D01*
X147086510Y-109989738D01*
X147086510Y-109989739D01*
X147170279Y-110006401D01*
X147241153Y-110020499D01*
X147241156Y-110020500D01*
X147241158Y-110020500D01*
X147398844Y-110020500D01*
X147398845Y-110020499D01*
X147553497Y-109989737D01*
X147699179Y-109929394D01*
X147830289Y-109841789D01*
X147941789Y-109730289D01*
X148029394Y-109599179D01*
X148089737Y-109453497D01*
X148120500Y-109298842D01*
X148120500Y-109141158D01*
X148120500Y-109141155D01*
X148120500Y-109140973D01*
X148120065Y-109138972D01*
X148090397Y-108989824D01*
X148089994Y-108987467D01*
X148089738Y-108986508D01*
X148089737Y-108986506D01*
X148089737Y-108986503D01*
X148089735Y-108986498D01*
X148029397Y-108840827D01*
X148029390Y-108840814D01*
X148029379Y-108840797D01*
X147951304Y-108723949D01*
X147936071Y-108692111D01*
X147926165Y-108660474D01*
X147920500Y-108623422D01*
X147920500Y-86727125D01*
X158669500Y-86727125D01*
X158669500Y-88522876D01*
X158669659Y-88524806D01*
X158669885Y-88526454D01*
X158675907Y-88582482D01*
X158703690Y-88656971D01*
X158726202Y-88717328D01*
X158726203Y-88717330D01*
X158726204Y-88717332D01*
X158726205Y-88717333D01*
X158812450Y-88832542D01*
X158812452Y-88832544D01*
X158812455Y-88832547D01*
X158927664Y-88918793D01*
X158927671Y-88918797D01*
X158972618Y-88935561D01*
X159062517Y-88969091D01*
X159062516Y-88969091D01*
X159125432Y-88975856D01*
X159125390Y-88976240D01*
X159148905Y-88980260D01*
X159175031Y-88987930D01*
X159227781Y-89019227D01*
X159763850Y-89555296D01*
X159797335Y-89616619D01*
X159792351Y-89686311D01*
X159750479Y-89742244D01*
X159738173Y-89750362D01*
X159712996Y-89764898D01*
X159712990Y-89764903D01*
X159619903Y-89857990D01*
X159619898Y-89857996D01*
X159605362Y-89883173D01*
X159554793Y-89931387D01*
X159486185Y-89944607D01*
X159421322Y-89918637D01*
X159410296Y-89908850D01*
X158904728Y-89403282D01*
X158904727Y-89403282D01*
X158865380Y-89457438D01*
X158768903Y-89646784D01*
X158703242Y-89848865D01*
X158701798Y-89857990D01*
X158670000Y-90058753D01*
X158670000Y-90271246D01*
X158695860Y-90434517D01*
X158701715Y-90471485D01*
X158701716Y-90471493D01*
X158703242Y-90481133D01*
X158737886Y-90587754D01*
X158768904Y-90683217D01*
X158865374Y-90872548D01*
X158865375Y-90872550D01*
X158900674Y-90921137D01*
X158904728Y-90926716D01*
X159410297Y-90421145D01*
X159471618Y-90387662D01*
X159541309Y-90392646D01*
X159597243Y-90434517D01*
X159605362Y-90446826D01*
X159619898Y-90472003D01*
X159619900Y-90472005D01*
X159619901Y-90472007D01*
X159712993Y-90565099D01*
X159738169Y-90579634D01*
X159786384Y-90630202D01*
X159799606Y-90698809D01*
X159773638Y-90763673D01*
X159763849Y-90774702D01*
X159258282Y-91280268D01*
X159258282Y-91280269D01*
X159258282Y-91280270D01*
X159312449Y-91319624D01*
X159501782Y-91416095D01*
X159501784Y-91416096D01*
X159703866Y-91481756D01*
X159703867Y-91481756D01*
X159703870Y-91481757D01*
X159913754Y-91515000D01*
X160126245Y-91515000D01*
X160126246Y-91515000D01*
X160239050Y-91497132D01*
X160326487Y-91483284D01*
X160326493Y-91483283D01*
X160336127Y-91481757D01*
X160336130Y-91481757D01*
X160538217Y-91416095D01*
X160727554Y-91319622D01*
X160729976Y-91317862D01*
X160749121Y-91303953D01*
X160775858Y-91294412D01*
X160781717Y-91280269D01*
X160276149Y-90774702D01*
X160242664Y-90713379D01*
X160247648Y-90643688D01*
X160289519Y-90587754D01*
X160301822Y-90579639D01*
X160327007Y-90565099D01*
X160420099Y-90472007D01*
X160434634Y-90446830D01*
X160485199Y-90398616D01*
X160553805Y-90385391D01*
X160618671Y-90411358D01*
X160629702Y-90421149D01*
X161135269Y-90926717D01*
X161135269Y-90926716D01*
X161135270Y-90926717D01*
X161135270Y-90926716D01*
X161148738Y-90921137D01*
X161154955Y-90899967D01*
X161158954Y-90894118D01*
X161174621Y-90872555D01*
X161174625Y-90872548D01*
X161271095Y-90683217D01*
X161336757Y-90481130D01*
X161336757Y-90481127D01*
X161370000Y-90271246D01*
X161370000Y-90058753D01*
X161356260Y-89972007D01*
X161338284Y-89858511D01*
X161338283Y-89858505D01*
X161338283Y-89858506D01*
X161336756Y-89848865D01*
X161309473Y-89764898D01*
X161271095Y-89646782D01*
X161174624Y-89457449D01*
X161135270Y-89403282D01*
X161135269Y-89403282D01*
X161135268Y-89403282D01*
X160629702Y-89908849D01*
X160568379Y-89942334D01*
X160498687Y-89937350D01*
X160442754Y-89895478D01*
X160434634Y-89883169D01*
X160420099Y-89857993D01*
X160327007Y-89764901D01*
X160327004Y-89764899D01*
X160327000Y-89764896D01*
X160301828Y-89750363D01*
X160253613Y-89699796D01*
X160240391Y-89631189D01*
X160266359Y-89566324D01*
X160276133Y-89555312D01*
X160807023Y-89024421D01*
X160835272Y-89003274D01*
X160858364Y-88990666D01*
X160914598Y-88976313D01*
X160914576Y-88975900D01*
X160914571Y-88975854D01*
X160914573Y-88975853D01*
X160914564Y-88975676D01*
X160917767Y-88975504D01*
X160917789Y-88975499D01*
X160917871Y-88975499D01*
X160917872Y-88975499D01*
X160977483Y-88969091D01*
X161112331Y-88918796D01*
X161227546Y-88832546D01*
X161313796Y-88717331D01*
X161364091Y-88582483D01*
X161370500Y-88522873D01*
X161370499Y-86727128D01*
X161364091Y-86667517D01*
X161349808Y-86629223D01*
X161313797Y-86532671D01*
X161313793Y-86532664D01*
X161243716Y-86439054D01*
X161227548Y-86417456D01*
X161227542Y-86417450D01*
X161169616Y-86374086D01*
X161112335Y-86331206D01*
X161112332Y-86331204D01*
X161112330Y-86331203D01*
X161112328Y-86331202D01*
X160977482Y-86280908D01*
X160977483Y-86280908D01*
X160917883Y-86274501D01*
X160917881Y-86274500D01*
X160917873Y-86274500D01*
X160917864Y-86274500D01*
X160916841Y-86274500D01*
X159122123Y-86274500D01*
X159120192Y-86274659D01*
X159118545Y-86274885D01*
X159062516Y-86280908D01*
X158927666Y-86331204D01*
X158927665Y-86331205D01*
X158812456Y-86417450D01*
X158812450Y-86417456D01*
X158726205Y-86532665D01*
X158726203Y-86532668D01*
X158675908Y-86667516D01*
X158669500Y-86727125D01*
X147920500Y-86727125D01*
X147920500Y-82867925D01*
X147925523Y-82832990D01*
X147932935Y-82807747D01*
X147964229Y-82755003D01*
X148958713Y-81760521D01*
X148958716Y-81760520D01*
X149070520Y-81648716D01*
X149120639Y-81561904D01*
X149149577Y-81511785D01*
X149155012Y-81491499D01*
X149160393Y-81480574D01*
X149169160Y-81471034D01*
X149175890Y-81458493D01*
X149175185Y-81457973D01*
X149178409Y-81453599D01*
X149178418Y-81453589D01*
X149179222Y-81452269D01*
X149180061Y-81451359D01*
X149181656Y-81449197D01*
X149181893Y-81449372D01*
X149212215Y-81416488D01*
X149329728Y-81331111D01*
X149456111Y-81204728D01*
X149561167Y-81060132D01*
X149642309Y-80900881D01*
X149685074Y-80769265D01*
X149697539Y-80730901D01*
X149697539Y-80730900D01*
X149697540Y-80730897D01*
X149725500Y-80554366D01*
X149725500Y-79253710D01*
X158169500Y-79253710D01*
X158169500Y-79496288D01*
X158201069Y-79736093D01*
X158201161Y-79736785D01*
X158263947Y-79971104D01*
X158338082Y-80150080D01*
X158349033Y-80176519D01*
X158356776Y-80195213D01*
X158356777Y-80195215D01*
X158478060Y-80405283D01*
X158478062Y-80405286D01*
X158478281Y-80405615D01*
X158479284Y-80406879D01*
X158625726Y-80597728D01*
X158625730Y-80597733D01*
X158625733Y-80597736D01*
X158625739Y-80597743D01*
X158625747Y-80597751D01*
X158797242Y-80769247D01*
X158797256Y-80769260D01*
X158797262Y-80769265D01*
X158989711Y-80916936D01*
X159199788Y-81038224D01*
X159423900Y-81131054D01*
X159658211Y-81193838D01*
X159838586Y-81217584D01*
X159898710Y-81225500D01*
X159898711Y-81225500D01*
X159898712Y-81225500D01*
X160141283Y-81225500D01*
X160141289Y-81225500D01*
X160189388Y-81219167D01*
X160381789Y-81193838D01*
X160616100Y-81131054D01*
X160840212Y-81038224D01*
X161050289Y-80916936D01*
X161242738Y-80769265D01*
X161414265Y-80597738D01*
X161561936Y-80405289D01*
X161683224Y-80195212D01*
X161776054Y-79971100D01*
X161838838Y-79736789D01*
X161870500Y-79496288D01*
X161870500Y-79253712D01*
X161838838Y-79013211D01*
X161776054Y-78778900D01*
X161683224Y-78554788D01*
X161561936Y-78344711D01*
X161414265Y-78152262D01*
X161414260Y-78152256D01*
X161414259Y-78152255D01*
X161414247Y-78152242D01*
X161242751Y-77980747D01*
X161242743Y-77980739D01*
X161242736Y-77980733D01*
X161242733Y-77980730D01*
X161242728Y-77980726D01*
X161058042Y-77839013D01*
X161050293Y-77833067D01*
X161050292Y-77833066D01*
X161050289Y-77833064D01*
X160867514Y-77727539D01*
X160867201Y-77727358D01*
X160867086Y-77727291D01*
X160840215Y-77711777D01*
X160840208Y-77711774D01*
X160616104Y-77618947D01*
X160381781Y-77556160D01*
X160141290Y-77524500D01*
X160141289Y-77524500D01*
X160141288Y-77524500D01*
X159898712Y-77524500D01*
X159898711Y-77524500D01*
X159898710Y-77524500D01*
X159658217Y-77556160D01*
X159423894Y-77618947D01*
X159199790Y-77711774D01*
X159199782Y-77711778D01*
X158989706Y-77833067D01*
X158989697Y-77833073D01*
X158797270Y-77980726D01*
X158797255Y-77980740D01*
X158797247Y-77980747D01*
X158625747Y-78152247D01*
X158625740Y-78152255D01*
X158625726Y-78152270D01*
X158478073Y-78344697D01*
X158478067Y-78344706D01*
X158356778Y-78554782D01*
X158356774Y-78554790D01*
X158263947Y-78778894D01*
X158201160Y-79013217D01*
X158169500Y-79253710D01*
X149725500Y-79253710D01*
X149725500Y-79105634D01*
X149717880Y-79057525D01*
X149698710Y-78936489D01*
X149698709Y-78936488D01*
X149697540Y-78929103D01*
X149697539Y-78929099D01*
X149697539Y-78929098D01*
X149642310Y-78759121D01*
X149642308Y-78759118D01*
X149630507Y-78735956D01*
X149629478Y-78733937D01*
X149561168Y-78599869D01*
X149526148Y-78551669D01*
X149456111Y-78455272D01*
X149329728Y-78328889D01*
X149185132Y-78223833D01*
X149143866Y-78202807D01*
X149032337Y-78145980D01*
X149030723Y-78145035D01*
X149025879Y-78142689D01*
X148855900Y-78087460D01*
X148722937Y-78066401D01*
X148722931Y-78066400D01*
X148679366Y-78059500D01*
X148679365Y-78059500D01*
X148500635Y-78059500D01*
X148500634Y-78059500D01*
X148457069Y-78066400D01*
X148457063Y-78066401D01*
X148343275Y-78084423D01*
X148343274Y-78084423D01*
X148324101Y-78087460D01*
X148324098Y-78087460D01*
X148154121Y-78142689D01*
X148154118Y-78142691D01*
X148138882Y-78150454D01*
X148138876Y-78150456D01*
X147994866Y-78223833D01*
X147850268Y-78328891D01*
X147723891Y-78455268D01*
X147618833Y-78599866D01*
X147540980Y-78752661D01*
X147540646Y-78753013D01*
X147537689Y-78759119D01*
X147482460Y-78929094D01*
X147480934Y-78938735D01*
X147476951Y-78938104D01*
X147462775Y-78986382D01*
X147436952Y-79008757D01*
X147450647Y-79057525D01*
X147454882Y-79100770D01*
X147454500Y-79105627D01*
X147454500Y-80554370D01*
X147479422Y-80711720D01*
X147479423Y-80711723D01*
X147482460Y-80730898D01*
X147482460Y-80730901D01*
X147537689Y-80900878D01*
X147537691Y-80900881D01*
X147545454Y-80916116D01*
X147545456Y-80916123D01*
X147618833Y-81060132D01*
X147689935Y-81157995D01*
X147706407Y-81189214D01*
X147711660Y-81203938D01*
X147715649Y-81273683D01*
X147714157Y-81280101D01*
X147681059Y-81339704D01*
X146874788Y-82145975D01*
X146846538Y-82167124D01*
X146836611Y-82172545D01*
X146768338Y-82187399D01*
X146702873Y-82162985D01*
X146661000Y-82107053D01*
X146658313Y-82099847D01*
X146650500Y-82056527D01*
X146650500Y-81513275D01*
X146655522Y-81478342D01*
X146657084Y-81473022D01*
X146661798Y-81456966D01*
X146690623Y-81406764D01*
X146693689Y-81403518D01*
X146710945Y-81388348D01*
X146789728Y-81331111D01*
X146916111Y-81204728D01*
X147021167Y-81060132D01*
X147102309Y-80900881D01*
X147145074Y-80769265D01*
X147157539Y-80730901D01*
X147157539Y-80730900D01*
X147157540Y-80730897D01*
X147185500Y-80554366D01*
X147185500Y-79105634D01*
X147157540Y-78929103D01*
X147157539Y-78929099D01*
X147157539Y-78929098D01*
X147102310Y-78759121D01*
X147102309Y-78759119D01*
X147099964Y-78754276D01*
X147099018Y-78752661D01*
X147090507Y-78735956D01*
X147089478Y-78733937D01*
X147021168Y-78599869D01*
X146986148Y-78551669D01*
X146916111Y-78455272D01*
X146789728Y-78328889D01*
X146645132Y-78223833D01*
X146603866Y-78202807D01*
X146492337Y-78145980D01*
X146490723Y-78145035D01*
X146485879Y-78142689D01*
X146315900Y-78087460D01*
X146182937Y-78066401D01*
X146182931Y-78066400D01*
X146139366Y-78059500D01*
X146139365Y-78059500D01*
X145960635Y-78059500D01*
X145960634Y-78059500D01*
X145917069Y-78066400D01*
X145917063Y-78066401D01*
X145803275Y-78084423D01*
X145803274Y-78084423D01*
X145784101Y-78087460D01*
X145784098Y-78087460D01*
X145614121Y-78142689D01*
X145614118Y-78142691D01*
X145598882Y-78150454D01*
X145598876Y-78150456D01*
X145454866Y-78223833D01*
X145310268Y-78328891D01*
X145183891Y-78455268D01*
X145078833Y-78599866D01*
X145000980Y-78752661D01*
X145000646Y-78753013D01*
X144997689Y-78759119D01*
X144942460Y-78929094D01*
X144940934Y-78938735D01*
X144936951Y-78938104D01*
X144922775Y-78986382D01*
X144896952Y-79008757D01*
X144910647Y-79057525D01*
X144914882Y-79100770D01*
X144914500Y-79105627D01*
X144914500Y-80554370D01*
X144939422Y-80711720D01*
X144939423Y-80711723D01*
X144942460Y-80730898D01*
X144942460Y-80730901D01*
X144997689Y-80900878D01*
X144997691Y-80900881D01*
X145005454Y-80916116D01*
X145005456Y-80916123D01*
X145050426Y-81004380D01*
X145078833Y-81060132D01*
X145183889Y-81204728D01*
X145310272Y-81331111D01*
X145357778Y-81365626D01*
X145383962Y-81384650D01*
X145409271Y-81409246D01*
X145422871Y-81426882D01*
X145446545Y-81479710D01*
X145447368Y-81484091D01*
X145449500Y-81506985D01*
X145449500Y-98742072D01*
X145444476Y-98777009D01*
X145437064Y-98802250D01*
X145405769Y-98854994D01*
X144459483Y-99801278D01*
X144459475Y-99801290D01*
X144418411Y-99872414D01*
X144418412Y-99872415D01*
X144414346Y-99879458D01*
X144414344Y-99879460D01*
X144412155Y-99883253D01*
X144409368Y-99888082D01*
X144409359Y-99888096D01*
X144380425Y-99938209D01*
X144380421Y-99938218D01*
X144357719Y-100022941D01*
X144336746Y-100065775D01*
X144335139Y-100067894D01*
X144278945Y-100109415D01*
X144209224Y-100113964D01*
X144148111Y-100080097D01*
X144118221Y-100030704D01*
X144116382Y-100024949D01*
X144110500Y-99987212D01*
X144110500Y-81513275D01*
X144115522Y-81478342D01*
X144117084Y-81473022D01*
X144121798Y-81456966D01*
X144150623Y-81406764D01*
X144153689Y-81403518D01*
X144170945Y-81388348D01*
X144249728Y-81331111D01*
X144376111Y-81204728D01*
X144481167Y-81060132D01*
X144562309Y-80900881D01*
X144605074Y-80769265D01*
X144617539Y-80730901D01*
X144617539Y-80730900D01*
X144617540Y-80730897D01*
X144645500Y-80554366D01*
X144645500Y-79105634D01*
X144617540Y-78929103D01*
X144617539Y-78929099D01*
X144617539Y-78929098D01*
X144562310Y-78759121D01*
X144562309Y-78759119D01*
X144559964Y-78754276D01*
X144559018Y-78752661D01*
X144550507Y-78735956D01*
X144549478Y-78733937D01*
X144481168Y-78599869D01*
X144446148Y-78551669D01*
X144376111Y-78455272D01*
X144249728Y-78328889D01*
X144105132Y-78223833D01*
X144063866Y-78202807D01*
X143952337Y-78145980D01*
X143950723Y-78145035D01*
X143945879Y-78142689D01*
X143775900Y-78087460D01*
X143642937Y-78066401D01*
X143642931Y-78066400D01*
X143599366Y-78059500D01*
X143599365Y-78059500D01*
X143420635Y-78059500D01*
X143420634Y-78059500D01*
X143377069Y-78066400D01*
X143377063Y-78066401D01*
X143263275Y-78084423D01*
X143263274Y-78084423D01*
X143244101Y-78087460D01*
X143244098Y-78087460D01*
X143074121Y-78142689D01*
X143074118Y-78142691D01*
X143058882Y-78150454D01*
X143058876Y-78150456D01*
X142914866Y-78223833D01*
X142770268Y-78328891D01*
X142643891Y-78455268D01*
X142538833Y-78599866D01*
X142460980Y-78752661D01*
X142460646Y-78753013D01*
X142457689Y-78759119D01*
X142402460Y-78929094D01*
X142400934Y-78938735D01*
X142396951Y-78938104D01*
X142382775Y-78986382D01*
X142356952Y-79008757D01*
X142370647Y-79057525D01*
X142374882Y-79100770D01*
X142374500Y-79105627D01*
X142374500Y-80554370D01*
X142399422Y-80711720D01*
X142399423Y-80711723D01*
X142402460Y-80730898D01*
X142402460Y-80730901D01*
X142457689Y-80900878D01*
X142457691Y-80900881D01*
X142465454Y-80916116D01*
X142465456Y-80916123D01*
X142510426Y-81004380D01*
X142538833Y-81060132D01*
X142643889Y-81204728D01*
X142770272Y-81331111D01*
X142817778Y-81365626D01*
X142843962Y-81384650D01*
X142869271Y-81409246D01*
X142882871Y-81426882D01*
X142906545Y-81479710D01*
X142907368Y-81484091D01*
X142909500Y-81506985D01*
X142909500Y-107632073D01*
X142904476Y-107667010D01*
X142897064Y-107692251D01*
X142865769Y-107744995D01*
X142237946Y-108372817D01*
X142209693Y-108393967D01*
X142180599Y-108409854D01*
X142145363Y-108422640D01*
X142006515Y-108450259D01*
X142006509Y-108450260D01*
X142006508Y-108450261D01*
X142006498Y-108450264D01*
X142006493Y-108450265D01*
X142006475Y-108450272D01*
X141860833Y-108510598D01*
X141860824Y-108510603D01*
X141860807Y-108510613D01*
X141729708Y-108598211D01*
X141729707Y-108598212D01*
X141729701Y-108598217D01*
X141618217Y-108709701D01*
X141618212Y-108709707D01*
X141618211Y-108709708D01*
X141530613Y-108840807D01*
X141530603Y-108840824D01*
X141530598Y-108840833D01*
X141470264Y-108986496D01*
X141470257Y-108986527D01*
X141439500Y-109141150D01*
X141439500Y-109141153D01*
X141439500Y-109298846D01*
X141439500Y-109298848D01*
X141439499Y-109298848D01*
X140300500Y-109298848D01*
X140300500Y-96015224D01*
X140305523Y-95980288D01*
X140309360Y-95967221D01*
X140347135Y-95908443D01*
X140410692Y-95879419D01*
X140472699Y-95886364D01*
X140480412Y-95889319D01*
X140504939Y-95902009D01*
X140590821Y-95959394D01*
X140590823Y-95959395D01*
X140590827Y-95959397D01*
X140682564Y-95997395D01*
X140736503Y-96019737D01*
X140736505Y-96019737D01*
X140736510Y-96019739D01*
X140820279Y-96036401D01*
X140891153Y-96050499D01*
X140891156Y-96050500D01*
X140891158Y-96050500D01*
X141048844Y-96050500D01*
X141048845Y-96050499D01*
X141203497Y-96019737D01*
X141349179Y-95959394D01*
X141480289Y-95871789D01*
X141591789Y-95760289D01*
X141679394Y-95629179D01*
X141739737Y-95483497D01*
X141770500Y-95328842D01*
X141770500Y-95171158D01*
X141770500Y-95171155D01*
X141770500Y-95170973D01*
X141770065Y-95168972D01*
X141740397Y-95019824D01*
X141739994Y-95017467D01*
X141739738Y-95016508D01*
X141739737Y-95016506D01*
X141739737Y-95016503D01*
X141739735Y-95016498D01*
X141679397Y-94870827D01*
X141679390Y-94870814D01*
X141679379Y-94870797D01*
X141601304Y-94753949D01*
X141586071Y-94722111D01*
X141576165Y-94690474D01*
X141570500Y-94653422D01*
X141570500Y-81513275D01*
X141575522Y-81478342D01*
X141577084Y-81473022D01*
X141581798Y-81456966D01*
X141610623Y-81406764D01*
X141613689Y-81403518D01*
X141630945Y-81388348D01*
X141709728Y-81331111D01*
X141836111Y-81204728D01*
X141941167Y-81060132D01*
X142022309Y-80900881D01*
X142065074Y-80769265D01*
X142077539Y-80730901D01*
X142077539Y-80730900D01*
X142077540Y-80730897D01*
X142105500Y-80554366D01*
X142105500Y-79105634D01*
X142077540Y-78929103D01*
X142077539Y-78929099D01*
X142077539Y-78929098D01*
X142022310Y-78759121D01*
X142022309Y-78759119D01*
X142019964Y-78754276D01*
X142019018Y-78752661D01*
X142010507Y-78735956D01*
X142009478Y-78733937D01*
X141941168Y-78599869D01*
X141906148Y-78551669D01*
X141836111Y-78455272D01*
X141709728Y-78328889D01*
X141565132Y-78223833D01*
X141523866Y-78202807D01*
X141412337Y-78145980D01*
X141410723Y-78145035D01*
X141405879Y-78142689D01*
X141235900Y-78087460D01*
X141102937Y-78066401D01*
X141102931Y-78066400D01*
X141059366Y-78059500D01*
X141059365Y-78059500D01*
X140880635Y-78059500D01*
X140880634Y-78059500D01*
X140837069Y-78066400D01*
X140837063Y-78066401D01*
X140723275Y-78084423D01*
X140723274Y-78084423D01*
X140704101Y-78087460D01*
X140704098Y-78087460D01*
X140534121Y-78142689D01*
X140534118Y-78142691D01*
X140518882Y-78150454D01*
X140518876Y-78150456D01*
X140374866Y-78223833D01*
X140230268Y-78328891D01*
X140103891Y-78455268D01*
X139998833Y-78599866D01*
X139920980Y-78752661D01*
X139920646Y-78753013D01*
X139917689Y-78759119D01*
X139862460Y-78929094D01*
X139860934Y-78938735D01*
X139856951Y-78938104D01*
X139842775Y-78986382D01*
X139816952Y-79008757D01*
X139830647Y-79057525D01*
X139834882Y-79100770D01*
X139834500Y-79105627D01*
X139834500Y-80554370D01*
X139859422Y-80711720D01*
X139859423Y-80711723D01*
X139862460Y-80730898D01*
X139862460Y-80730901D01*
X139917689Y-80900878D01*
X139917691Y-80900881D01*
X139925454Y-80916116D01*
X139925456Y-80916123D01*
X139970426Y-81004380D01*
X139998833Y-81060132D01*
X140103889Y-81204728D01*
X140230272Y-81331111D01*
X140277778Y-81365626D01*
X140303962Y-81384650D01*
X140329271Y-81409246D01*
X140342871Y-81426882D01*
X140366545Y-81479710D01*
X140367368Y-81484091D01*
X140369500Y-81506985D01*
X140369500Y-88403071D01*
X140364476Y-88438009D01*
X140361289Y-88448862D01*
X140323514Y-88507639D01*
X140259957Y-88536662D01*
X140190799Y-88526717D01*
X140183823Y-88523531D01*
X140147657Y-88498420D01*
X140111097Y-88461861D01*
X140111095Y-88461859D01*
X140064397Y-88415160D01*
X140064374Y-88415139D01*
X139079426Y-87430191D01*
X139058274Y-87401935D01*
X139045667Y-87378846D01*
X139030500Y-87319421D01*
X139030500Y-81513275D01*
X139035522Y-81478342D01*
X139037084Y-81473022D01*
X139041798Y-81456966D01*
X139070623Y-81406764D01*
X139073689Y-81403518D01*
X139090945Y-81388348D01*
X139169728Y-81331111D01*
X139296111Y-81204728D01*
X139401167Y-81060132D01*
X139482309Y-80900881D01*
X139525074Y-80769265D01*
X139537539Y-80730901D01*
X139537539Y-80730900D01*
X139537540Y-80730897D01*
X139565500Y-80554366D01*
X139565500Y-79105634D01*
X139537540Y-78929103D01*
X139537539Y-78929099D01*
X139537539Y-78929098D01*
X139482310Y-78759121D01*
X139482309Y-78759119D01*
X139479964Y-78754276D01*
X139479018Y-78752661D01*
X139470507Y-78735956D01*
X139469478Y-78733937D01*
X139401168Y-78599869D01*
X139366148Y-78551669D01*
X139296111Y-78455272D01*
X139169728Y-78328889D01*
X139025132Y-78223833D01*
X138983866Y-78202807D01*
X138872337Y-78145980D01*
X138870723Y-78145035D01*
X138865879Y-78142689D01*
X138695900Y-78087460D01*
X138562937Y-78066401D01*
X138562931Y-78066400D01*
X138519366Y-78059500D01*
X138519365Y-78059500D01*
X138340635Y-78059500D01*
X138340634Y-78059500D01*
X138297069Y-78066400D01*
X138297063Y-78066401D01*
X138183275Y-78084423D01*
X138183274Y-78084423D01*
X138164101Y-78087460D01*
X138164098Y-78087460D01*
X137994121Y-78142689D01*
X137994118Y-78142691D01*
X137978882Y-78150454D01*
X137978876Y-78150456D01*
X137834866Y-78223833D01*
X137690268Y-78328891D01*
X137563891Y-78455268D01*
X137458833Y-78599866D01*
X137380980Y-78752661D01*
X137380646Y-78753013D01*
X137377689Y-78759119D01*
X137322460Y-78929094D01*
X137320934Y-78938735D01*
X137316951Y-78938104D01*
X137302775Y-78986382D01*
X137276952Y-79008757D01*
X137290647Y-79057525D01*
X137294882Y-79100770D01*
X137294500Y-79105627D01*
X137294500Y-80554370D01*
X137319422Y-80711720D01*
X137319423Y-80711723D01*
X137322460Y-80730898D01*
X137322460Y-80730901D01*
X137377689Y-80900878D01*
X137377691Y-80900881D01*
X137385454Y-80916116D01*
X137385456Y-80916123D01*
X137430426Y-81004380D01*
X137458833Y-81060132D01*
X137563889Y-81204728D01*
X137690272Y-81331111D01*
X137737778Y-81365626D01*
X137763962Y-81384650D01*
X137789271Y-81409246D01*
X137802871Y-81426882D01*
X137826545Y-81479710D01*
X137827368Y-81484091D01*
X137829500Y-81506985D01*
X137829500Y-87133073D01*
X137824476Y-87168011D01*
X137821289Y-87178864D01*
X137783514Y-87237641D01*
X137719957Y-87266664D01*
X137650807Y-87256723D01*
X137643829Y-87253536D01*
X137607657Y-87228422D01*
X136539426Y-86160191D01*
X136518274Y-86131935D01*
X136505667Y-86108846D01*
X136490500Y-86049421D01*
X136490500Y-81513275D01*
X136495522Y-81478342D01*
X136497084Y-81473022D01*
X136501798Y-81456966D01*
X136530623Y-81406764D01*
X136533689Y-81403518D01*
X136550945Y-81388348D01*
X136629728Y-81331111D01*
X136756111Y-81204728D01*
X136861167Y-81060132D01*
X136942309Y-80900881D01*
X136985074Y-80769265D01*
X136997539Y-80730901D01*
X136997539Y-80730900D01*
X136997540Y-80730897D01*
X137025500Y-80554366D01*
X137025500Y-79105634D01*
X136997540Y-78929103D01*
X136997539Y-78929099D01*
X136997539Y-78929098D01*
X136942310Y-78759121D01*
X136942309Y-78759119D01*
X136939964Y-78754276D01*
X136939018Y-78752661D01*
X136930507Y-78735956D01*
X136929478Y-78733937D01*
X136861168Y-78599869D01*
X136826148Y-78551669D01*
X136756111Y-78455272D01*
X136629728Y-78328889D01*
X136485132Y-78223833D01*
X136443866Y-78202807D01*
X136332337Y-78145980D01*
X136330723Y-78145035D01*
X136325879Y-78142689D01*
X136155900Y-78087460D01*
X136022937Y-78066401D01*
X136022931Y-78066400D01*
X135979366Y-78059500D01*
X135979365Y-78059500D01*
X135800635Y-78059500D01*
X135800634Y-78059500D01*
X135757069Y-78066400D01*
X135757063Y-78066401D01*
X135643275Y-78084423D01*
X135643274Y-78084423D01*
X135624101Y-78087460D01*
X135624098Y-78087460D01*
X135454121Y-78142689D01*
X135454118Y-78142691D01*
X135438882Y-78150454D01*
X135438876Y-78150456D01*
X135294866Y-78223833D01*
X135150268Y-78328891D01*
X135023891Y-78455268D01*
X134918833Y-78599866D01*
X134840980Y-78752661D01*
X134840646Y-78753013D01*
X134837689Y-78759119D01*
X134782460Y-78929094D01*
X134780934Y-78938735D01*
X134776951Y-78938104D01*
X134762775Y-78986382D01*
X134736952Y-79008757D01*
X134750647Y-79057525D01*
X134754882Y-79100770D01*
X134754500Y-79105627D01*
X134754500Y-79367562D01*
X134743201Y-79406041D01*
X134737566Y-79434903D01*
X134725440Y-79447558D01*
X134723693Y-79449852D01*
X134723432Y-79449653D01*
X134689228Y-79485353D01*
X134621288Y-79501661D01*
X134555317Y-79478649D01*
X134529832Y-79454231D01*
X134527400Y-79451123D01*
X134514572Y-79431004D01*
X134505678Y-79413549D01*
X134495589Y-79386204D01*
X134488924Y-79358442D01*
X134485500Y-79329500D01*
X134485500Y-79105634D01*
X134470862Y-79013214D01*
X134460577Y-78948277D01*
X134457540Y-78929103D01*
X134457539Y-78929099D01*
X134457539Y-78929098D01*
X134402310Y-78759121D01*
X134402309Y-78759119D01*
X134399964Y-78754276D01*
X134399018Y-78752661D01*
X134390507Y-78735956D01*
X134389478Y-78733937D01*
X134321168Y-78599869D01*
X134286148Y-78551669D01*
X134216111Y-78455272D01*
X134089728Y-78328889D01*
X133945132Y-78223833D01*
X133903866Y-78202807D01*
X133792337Y-78145980D01*
X133790723Y-78145035D01*
X133785879Y-78142689D01*
X133615900Y-78087460D01*
X133482937Y-78066401D01*
X133482931Y-78066400D01*
X133439366Y-78059500D01*
X133439365Y-78059500D01*
X133260635Y-78059500D01*
X133260634Y-78059500D01*
X133217069Y-78066400D01*
X133217063Y-78066401D01*
X133103275Y-78084423D01*
X133103274Y-78084423D01*
X133084101Y-78087460D01*
X133084098Y-78087460D01*
X132914121Y-78142689D01*
X132914118Y-78142691D01*
X132898882Y-78150454D01*
X132898876Y-78150456D01*
X132754866Y-78223833D01*
X132610268Y-78328891D01*
X132483891Y-78455268D01*
X132378833Y-78599866D01*
X132305456Y-78743874D01*
X132305452Y-78743885D01*
X132297691Y-78759118D01*
X132297689Y-78759121D01*
X132242460Y-78929098D01*
X132242460Y-78929101D01*
X132239423Y-78948271D01*
X132239422Y-78948277D01*
X132214500Y-79105628D01*
X132214500Y-79329500D01*
X132211074Y-79358448D01*
X132204411Y-79386201D01*
X132194320Y-79413551D01*
X132187576Y-79426786D01*
X132167245Y-79455627D01*
X132159908Y-79463396D01*
X132099567Y-79498620D01*
X132029761Y-79495630D01*
X131972654Y-79455375D01*
X131948052Y-79402007D01*
X131947296Y-79398133D01*
X131945000Y-79374383D01*
X131945000Y-78512172D01*
X131944998Y-78512138D01*
X131938598Y-78452628D01*
X131938596Y-78452621D01*
X131938596Y-78452620D01*
X131888354Y-78317913D01*
X131888350Y-78317906D01*
X131818120Y-78224091D01*
X131802191Y-78202813D01*
X131802185Y-78202807D01*
X131726274Y-78145980D01*
X131687093Y-78116649D01*
X131687088Y-78116646D01*
X131687089Y-78116646D01*
X131552377Y-78066402D01*
X131552370Y-78066400D01*
X131492852Y-78060000D01*
X131492844Y-78060000D01*
X131060000Y-78060000D01*
X131060000Y-79321277D01*
X131040315Y-79388316D01*
X130987511Y-79434071D01*
X130918353Y-79444015D01*
X130903911Y-79441052D01*
X130862661Y-79430000D01*
X130862660Y-79430000D01*
X130757339Y-79430000D01*
X130716092Y-79441051D01*
X130646243Y-79439389D01*
X130588381Y-79400226D01*
X130560877Y-79335998D01*
X130560000Y-79321277D01*
X130560000Y-78060000D01*
X130127155Y-78060000D01*
X130127146Y-78060000D01*
X130067628Y-78066400D01*
X130067621Y-78066402D01*
X129932910Y-78116646D01*
X129932907Y-78116648D01*
X129817813Y-78202807D01*
X129817807Y-78202813D01*
X129731648Y-78317907D01*
X129731646Y-78317910D01*
X129681402Y-78452621D01*
X129681400Y-78452628D01*
X129675000Y-78512146D01*
X129675000Y-78512155D01*
X129675000Y-79580000D01*
X130301277Y-79580000D01*
X130368316Y-79599685D01*
X130414071Y-79652489D01*
X130424015Y-79721647D01*
X130421052Y-79736088D01*
X130410000Y-79777339D01*
X130410000Y-79882660D01*
X130421052Y-79923907D01*
X130419389Y-79993757D01*
X130380226Y-80051619D01*
X130315998Y-80079123D01*
X130301277Y-80080000D01*
X129675000Y-80080000D01*
X129675000Y-81147852D01*
X129681400Y-81207370D01*
X129681402Y-81207377D01*
X129692908Y-81238226D01*
X129731645Y-81342086D01*
X129731649Y-81342093D01*
X129766273Y-81388344D01*
X129817807Y-81457185D01*
X129817813Y-81457191D01*
X129849049Y-81480574D01*
X129932906Y-81543350D01*
X129932913Y-81543354D01*
X130067620Y-81593596D01*
X130067627Y-81593598D01*
X130074468Y-81594333D01*
X130127138Y-81599998D01*
X130127155Y-81599999D01*
X130127172Y-81600000D01*
X130560000Y-81600000D01*
X130560000Y-80338722D01*
X130579685Y-80271683D01*
X130632489Y-80225928D01*
X130701647Y-80215984D01*
X130716082Y-80218945D01*
X130757339Y-80230000D01*
X130862659Y-80230000D01*
X130862661Y-80230000D01*
X130903907Y-80218948D01*
X130973755Y-80220609D01*
X131031618Y-80259771D01*
X131059123Y-80323999D01*
X131060000Y-80338722D01*
X131060000Y-81600000D01*
X131492828Y-81600000D01*
X131492836Y-81600000D01*
X131492847Y-81599999D01*
X131528560Y-81596158D01*
X131552372Y-81593598D01*
X131552379Y-81593596D01*
X131687086Y-81543354D01*
X131687093Y-81543350D01*
X131802187Y-81457190D01*
X131802188Y-81457189D01*
X131815550Y-81439339D01*
X131840503Y-81414387D01*
X131844094Y-81411699D01*
X131849558Y-81407608D01*
X131915021Y-81383191D01*
X131983294Y-81398042D01*
X132032693Y-81447434D01*
X132034324Y-81450420D01*
X132049500Y-81509861D01*
X132049500Y-86232356D01*
X132081521Y-86434530D01*
X132144780Y-86629220D01*
X132144786Y-86629234D01*
X132237708Y-86811601D01*
X132237713Y-86811610D01*
X132237715Y-86811613D01*
X132358028Y-86977213D01*
X132502786Y-87121971D01*
X132657749Y-87234556D01*
X132668390Y-87242287D01*
X132729926Y-87273641D01*
X132840345Y-87329903D01*
X132844329Y-87331933D01*
X132845930Y-87332870D01*
X132849620Y-87334658D01*
X132851638Y-87335660D01*
X132855406Y-87336723D01*
X132880863Y-87344994D01*
X132915537Y-87356260D01*
X132915538Y-87356261D01*
X132978072Y-87376579D01*
X133045465Y-87398477D01*
X133146557Y-87414488D01*
X133247648Y-87430500D01*
X133247649Y-87430500D01*
X133452351Y-87430500D01*
X133452352Y-87430500D01*
X133654534Y-87398477D01*
X133849219Y-87335220D01*
X134031610Y-87242287D01*
X134124590Y-87174732D01*
X134197213Y-87121971D01*
X134197213Y-87121969D01*
X134197272Y-87121927D01*
X134198031Y-87121153D01*
X134341966Y-86977219D01*
X134341968Y-86977215D01*
X134341971Y-86977213D01*
X134434690Y-86849594D01*
X134436142Y-86847596D01*
X134436146Y-86847590D01*
X134462287Y-86811610D01*
X134555220Y-86629219D01*
X134618477Y-86434534D01*
X134650500Y-86232352D01*
X134650500Y-81067825D01*
X134661794Y-81029360D01*
X134667429Y-81000491D01*
X134679533Y-80987856D01*
X134681263Y-80985583D01*
X134681522Y-80985780D01*
X134715764Y-80950037D01*
X134783702Y-80933725D01*
X134849675Y-80956732D01*
X134875159Y-80981145D01*
X134877595Y-80984258D01*
X134890424Y-81004378D01*
X134918833Y-81060132D01*
X135023889Y-81204728D01*
X135150272Y-81331111D01*
X135197778Y-81365626D01*
X135223962Y-81384650D01*
X135249271Y-81409246D01*
X135262871Y-81426882D01*
X135286545Y-81479710D01*
X135287368Y-81484091D01*
X135289500Y-81506985D01*
X135289500Y-86271590D01*
X135289499Y-86271664D01*
X135289499Y-86396960D01*
X135283600Y-86417046D01*
X135330425Y-86591792D01*
X135338581Y-86605919D01*
X135338585Y-86605924D01*
X135349308Y-86624495D01*
X135349311Y-86624500D01*
X135409476Y-86728711D01*
X135409477Y-86728712D01*
X135409482Y-86728718D01*
X135409488Y-86728725D01*
X135530314Y-86849551D01*
X135530359Y-86849594D01*
X137780573Y-89099808D01*
X137801723Y-89128060D01*
X137814331Y-89151149D01*
X137829500Y-89210578D01*
X137829500Y-112712072D01*
X137824476Y-112747009D01*
X137817064Y-112772250D01*
X137785769Y-112824994D01*
X134420191Y-116190573D01*
X134391940Y-116211722D01*
X134368852Y-116224330D01*
X134309422Y-116239500D01*
X126327596Y-116239500D01*
X126292661Y-116234477D01*
X126260852Y-116225137D01*
X126226898Y-116209263D01*
X126109185Y-116130609D01*
X126109172Y-116130602D01*
X126109165Y-116130598D01*
X125963502Y-116070264D01*
X125963471Y-116070257D01*
X125808847Y-116039500D01*
X125808845Y-116039500D01*
X125808842Y-116039500D01*
X125651158Y-116039500D01*
X125651155Y-116039500D01*
X125651153Y-116039500D01*
X125496527Y-116070257D01*
X125496496Y-116070264D01*
X125350833Y-116130598D01*
X125350824Y-116130603D01*
X125350807Y-116130613D01*
X125219708Y-116218211D01*
X125219707Y-116218212D01*
X125219701Y-116218217D01*
X125108217Y-116329701D01*
X125108212Y-116329707D01*
X125108211Y-116329708D01*
X125020613Y-116460807D01*
X125020603Y-116460824D01*
X125020598Y-116460833D01*
X124960264Y-116606496D01*
X124960257Y-116606527D01*
X124929500Y-116761150D01*
X124929500Y-116761153D01*
X124929500Y-116918846D01*
X124929500Y-116918848D01*
X124929499Y-116918848D01*
X124960257Y-117073471D01*
X124960264Y-117073502D01*
X125020598Y-117219165D01*
X125020603Y-117219174D01*
X125020610Y-117219186D01*
X125075800Y-117301784D01*
X125091031Y-117333621D01*
X125095101Y-117346619D01*
X125096349Y-117416477D01*
X125059630Y-117475920D01*
X125004216Y-117504596D01*
X125001721Y-117505162D01*
X124996158Y-117506424D01*
X124968714Y-117509500D01*
X124777927Y-117509500D01*
X124742991Y-117504477D01*
X124717749Y-117497065D01*
X124665004Y-117465769D01*
X124509426Y-117310191D01*
X124488274Y-117281935D01*
X124475667Y-117258846D01*
X124460500Y-117199421D01*
X124460500Y-116090945D01*
X124460500Y-116090943D01*
X124435687Y-115998339D01*
X124431828Y-115983936D01*
X124428664Y-115968028D01*
X124426561Y-115952054D01*
X124425500Y-115935869D01*
X124425500Y-115532594D01*
X124430522Y-115497661D01*
X124431444Y-115494522D01*
X124439864Y-115465845D01*
X124455733Y-115431902D01*
X124534390Y-115314185D01*
X124534390Y-115314184D01*
X124534394Y-115314179D01*
X124534397Y-115314172D01*
X124535074Y-115313159D01*
X124536710Y-115308585D01*
X124594737Y-115168497D01*
X124625499Y-115013848D01*
X124625500Y-115013844D01*
X124625500Y-114855973D01*
X124625065Y-114853972D01*
X124616377Y-114810297D01*
X124595395Y-114704815D01*
X124594984Y-114702406D01*
X124594738Y-114701510D01*
X124594737Y-114701503D01*
X124581156Y-114668716D01*
X124581153Y-114668709D01*
X124534402Y-114555840D01*
X124534399Y-114555833D01*
X124534397Y-114555827D01*
X124534390Y-114555814D01*
X124446789Y-114424711D01*
X124446786Y-114424707D01*
X124446781Y-114424701D01*
X124335297Y-114313217D01*
X124335291Y-114313212D01*
X124335290Y-114313211D01*
X124204191Y-114225613D01*
X124204190Y-114225612D01*
X124204185Y-114225609D01*
X124204172Y-114225602D01*
X124204165Y-114225598D01*
X124058502Y-114165264D01*
X124058471Y-114165257D01*
X123903847Y-114134500D01*
X123903845Y-114134500D01*
X123903842Y-114134500D01*
X123746158Y-114134500D01*
X123746155Y-114134500D01*
X123746153Y-114134500D01*
X123591527Y-114165257D01*
X123591496Y-114165264D01*
X123445833Y-114225598D01*
X123445824Y-114225603D01*
X123445807Y-114225613D01*
X123314708Y-114313211D01*
X123314707Y-114313212D01*
X123314701Y-114313217D01*
X123203217Y-114424701D01*
X123203212Y-114424707D01*
X123203211Y-114424708D01*
X123115613Y-114555807D01*
X123115603Y-114555824D01*
X123115598Y-114555833D01*
X123055264Y-114701496D01*
X123055257Y-114701527D01*
X123024500Y-114856150D01*
X123024500Y-115013844D01*
X123024499Y-115013848D01*
X123055257Y-115168471D01*
X123055264Y-115168502D01*
X123115598Y-115314165D01*
X123115602Y-115314172D01*
X123115609Y-115314185D01*
X123193697Y-115431050D01*
X123208928Y-115462886D01*
X123218834Y-115494522D01*
X123224500Y-115531575D01*
X123224500Y-116046590D01*
X123224499Y-116046664D01*
X123224499Y-116214057D01*
X123231316Y-116239497D01*
X123231317Y-116239500D01*
X123231317Y-116239501D01*
X123253172Y-116321066D01*
X123256335Y-116336969D01*
X123258439Y-116352950D01*
X123259500Y-116369130D01*
X123259500Y-117421590D01*
X123259499Y-117421664D01*
X123259499Y-117546960D01*
X123253600Y-117567046D01*
X123300423Y-117741786D01*
X123320662Y-117776841D01*
X123320663Y-117776841D01*
X123329358Y-117791901D01*
X123329359Y-117791904D01*
X123329360Y-117791904D01*
X123341422Y-117812796D01*
X123341422Y-117812798D01*
X123379467Y-117878695D01*
X123379477Y-117878711D01*
X123379481Y-117878717D01*
X123379485Y-117878722D01*
X123500314Y-117999551D01*
X123500359Y-117999594D01*
X123974085Y-118473320D01*
X123974106Y-118473342D01*
X124091284Y-118590520D01*
X124175599Y-118639198D01*
X124201719Y-118665445D01*
X124216955Y-118675738D01*
X124220741Y-118684560D01*
X124221287Y-118685108D01*
X124226376Y-118694022D01*
X124225112Y-118694743D01*
X124244514Y-118739942D01*
X124232987Y-118808855D01*
X124193458Y-118855687D01*
X124192958Y-118856044D01*
X124141495Y-118877405D01*
X124139280Y-118877778D01*
X124118689Y-118879500D01*
X113030001Y-118879500D01*
X112903374Y-118879499D01*
X112903373Y-118879499D01*
X112903372Y-118879499D01*
X112903370Y-118879499D01*
X112840348Y-118888559D01*
X112840349Y-118888560D01*
X112652690Y-118915541D01*
X112652678Y-118915544D01*
X112409703Y-118986887D01*
X112409691Y-118986892D01*
X112179328Y-119092094D01*
X112179304Y-119092108D01*
X111966269Y-119229017D01*
X111966267Y-119229019D01*
X111774867Y-119394867D01*
X111609019Y-119586267D01*
X111609017Y-119586269D01*
X111472108Y-119799304D01*
X111472094Y-119799328D01*
X111366892Y-120029691D01*
X111366887Y-120029703D01*
X111295544Y-120272678D01*
X111295541Y-120272690D01*
X111259499Y-120523375D01*
X111259499Y-120523376D01*
X111259500Y-120649999D01*
X111259500Y-123817670D01*
X111254475Y-123852614D01*
X111250070Y-123867612D01*
X111212327Y-123926355D01*
X111210958Y-123927542D01*
X111156097Y-123955018D01*
X111148539Y-123956663D01*
X111122168Y-123959500D01*
X80016097Y-123959500D01*
X80012026Y-123959433D01*
X80007977Y-123959300D01*
X80003938Y-123959102D01*
X79755937Y-123942847D01*
X79747858Y-123942051D01*
X79739839Y-123940995D01*
X79731838Y-123939674D01*
X79727849Y-123938880D01*
X79700770Y-123933494D01*
X79670848Y-123927542D01*
X79494096Y-123892383D01*
X79486192Y-123890540D01*
X79478359Y-123888441D01*
X79470597Y-123886086D01*
X79241060Y-123808169D01*
X79233479Y-123805317D01*
X79229683Y-123803745D01*
X79225979Y-123802211D01*
X79218585Y-123798861D01*
X79001179Y-123691648D01*
X78994032Y-123687828D01*
X78986998Y-123683767D01*
X78980117Y-123679488D01*
X78778569Y-123544818D01*
X78771972Y-123540090D01*
X78765533Y-123535149D01*
X78759262Y-123530003D01*
X78577014Y-123370175D01*
X78571092Y-123364628D01*
X78565370Y-123358906D01*
X78559823Y-123352984D01*
X78399995Y-123170736D01*
X78394849Y-123164465D01*
X78389908Y-123158026D01*
X78385180Y-123151429D01*
X78370305Y-123129167D01*
X78250504Y-122949871D01*
X78246236Y-122943009D01*
X78242164Y-122935955D01*
X78238350Y-122928819D01*
X78188107Y-122826936D01*
X78188105Y-122826932D01*
X78131122Y-122711381D01*
X78127795Y-122704039D01*
X78124676Y-122696508D01*
X78121831Y-122688944D01*
X78043912Y-122459401D01*
X78041560Y-122451650D01*
X78041167Y-122450185D01*
X78039456Y-122443801D01*
X78037622Y-122435941D01*
X78029736Y-122396292D01*
X77990320Y-122198137D01*
X77989001Y-122190144D01*
X77987948Y-122182145D01*
X77987152Y-122174071D01*
X77982639Y-122105212D01*
X77970896Y-121926044D01*
X77970698Y-121921991D01*
X77970566Y-121917943D01*
X77970500Y-121913902D01*
X77970500Y-121163710D01*
X79429500Y-121163710D01*
X79429500Y-121163711D01*
X79429500Y-121406288D01*
X79461161Y-121646785D01*
X79523947Y-121881104D01*
X79606062Y-122079346D01*
X79612338Y-122094499D01*
X79616776Y-122105213D01*
X79616777Y-122105215D01*
X79738060Y-122315283D01*
X79738062Y-122315286D01*
X79738281Y-122315615D01*
X79739284Y-122316879D01*
X79885726Y-122507728D01*
X79885730Y-122507733D01*
X79885733Y-122507736D01*
X79885739Y-122507743D01*
X79885747Y-122507751D01*
X80057242Y-122679247D01*
X80057256Y-122679260D01*
X80057262Y-122679265D01*
X80249711Y-122826936D01*
X80459788Y-122948224D01*
X80683900Y-123041054D01*
X80918211Y-123103838D01*
X81098586Y-123127584D01*
X81158710Y-123135500D01*
X81158711Y-123135500D01*
X81158712Y-123135500D01*
X81401283Y-123135500D01*
X81401289Y-123135500D01*
X81449388Y-123129167D01*
X81641789Y-123103838D01*
X81876100Y-123041054D01*
X82100212Y-122948224D01*
X82310289Y-122826936D01*
X82502738Y-122679265D01*
X82674265Y-122507738D01*
X82821936Y-122315289D01*
X82943224Y-122105212D01*
X83036054Y-121881100D01*
X83098838Y-121646789D01*
X83130500Y-121406288D01*
X83130500Y-121163712D01*
X83098838Y-120923211D01*
X83036054Y-120688900D01*
X82943224Y-120464788D01*
X82821936Y-120254711D01*
X82674265Y-120062262D01*
X82674260Y-120062256D01*
X82674259Y-120062255D01*
X82674247Y-120062242D01*
X82502751Y-119890747D01*
X82502743Y-119890739D01*
X82502736Y-119890733D01*
X82502733Y-119890730D01*
X82502728Y-119890726D01*
X82311879Y-119744284D01*
X82310615Y-119743281D01*
X82310286Y-119743062D01*
X82310283Y-119743060D01*
X82100220Y-119621780D01*
X82100207Y-119621773D01*
X82100203Y-119621772D01*
X81876104Y-119528947D01*
X81641781Y-119466160D01*
X81401290Y-119434500D01*
X81401289Y-119434500D01*
X81401288Y-119434500D01*
X81158712Y-119434500D01*
X81158711Y-119434500D01*
X81158710Y-119434500D01*
X80918217Y-119466160D01*
X80683894Y-119528947D01*
X80459790Y-119621774D01*
X80459782Y-119621778D01*
X80249706Y-119743067D01*
X80249697Y-119743073D01*
X80057270Y-119890726D01*
X80057255Y-119890740D01*
X80057247Y-119890747D01*
X79885747Y-120062247D01*
X79885740Y-120062255D01*
X79885726Y-120062270D01*
X79738073Y-120254697D01*
X79738067Y-120254706D01*
X79616778Y-120464782D01*
X79616774Y-120464790D01*
X79523947Y-120688894D01*
X79461160Y-120923217D01*
X79429500Y-121163710D01*
X77970500Y-121163710D01*
X77970500Y-116918848D01*
X118579499Y-116918848D01*
X118610257Y-117073471D01*
X118610264Y-117073502D01*
X118670598Y-117219165D01*
X118670603Y-117219174D01*
X118670613Y-117219191D01*
X118758211Y-117350290D01*
X118758212Y-117350291D01*
X118758217Y-117350297D01*
X118869701Y-117461781D01*
X118869707Y-117461786D01*
X118869711Y-117461789D01*
X119000814Y-117549390D01*
X119000827Y-117549397D01*
X119146498Y-117609735D01*
X119146503Y-117609737D01*
X119301153Y-117640499D01*
X119301156Y-117640500D01*
X119301158Y-117640500D01*
X119458844Y-117640500D01*
X119458845Y-117640499D01*
X119613497Y-117609737D01*
X119759179Y-117549394D01*
X119890289Y-117461789D01*
X120001789Y-117350289D01*
X120089394Y-117219179D01*
X120149737Y-117073497D01*
X120169113Y-116976085D01*
X120177159Y-116935634D01*
X120188901Y-116902354D01*
X120204268Y-116872977D01*
X120226459Y-116842774D01*
X133352056Y-103717177D01*
X133380307Y-103696029D01*
X133409403Y-103680141D01*
X133444635Y-103667358D01*
X133486085Y-103659113D01*
X133583497Y-103639737D01*
X133729179Y-103579394D01*
X133860289Y-103491789D01*
X133971789Y-103380289D01*
X134059394Y-103249179D01*
X134119737Y-103103497D01*
X134150500Y-102948842D01*
X134150500Y-102791158D01*
X134150500Y-102791155D01*
X134150500Y-102790973D01*
X134150065Y-102788972D01*
X134147159Y-102774362D01*
X134120918Y-102642442D01*
X134120901Y-102642323D01*
X134119738Y-102636510D01*
X134119738Y-102636508D01*
X134119737Y-102636503D01*
X134119735Y-102636498D01*
X134059397Y-102490827D01*
X134059390Y-102490814D01*
X133971789Y-102359711D01*
X133971786Y-102359707D01*
X133971781Y-102359701D01*
X133860297Y-102248217D01*
X133860291Y-102248212D01*
X133860290Y-102248211D01*
X133729191Y-102160613D01*
X133729190Y-102160612D01*
X133729185Y-102160609D01*
X133729172Y-102160602D01*
X133729165Y-102160598D01*
X133583502Y-102100264D01*
X133583471Y-102100257D01*
X133428847Y-102069500D01*
X133428845Y-102069500D01*
X133428842Y-102069500D01*
X133271158Y-102069500D01*
X133271155Y-102069500D01*
X133271153Y-102069500D01*
X133116527Y-102100257D01*
X133116496Y-102100264D01*
X132970833Y-102160598D01*
X132970824Y-102160603D01*
X132970807Y-102160613D01*
X132839708Y-102248211D01*
X132839707Y-102248212D01*
X132839701Y-102248217D01*
X132728217Y-102359701D01*
X132728212Y-102359707D01*
X132728211Y-102359708D01*
X132640613Y-102490807D01*
X132640603Y-102490824D01*
X132640598Y-102490833D01*
X132580272Y-102636475D01*
X132580264Y-102636499D01*
X132580259Y-102636515D01*
X132552839Y-102774362D01*
X132541098Y-102807644D01*
X132525733Y-102837018D01*
X132503538Y-102867225D01*
X119377946Y-115992817D01*
X119349693Y-116013967D01*
X119320599Y-116029854D01*
X119285363Y-116042640D01*
X119146515Y-116070259D01*
X119146509Y-116070260D01*
X119146508Y-116070261D01*
X119146498Y-116070264D01*
X119146493Y-116070265D01*
X119146475Y-116070272D01*
X119000833Y-116130598D01*
X119000824Y-116130603D01*
X119000807Y-116130613D01*
X118869708Y-116218211D01*
X118869707Y-116218212D01*
X118869701Y-116218217D01*
X118758217Y-116329701D01*
X118758212Y-116329707D01*
X118758211Y-116329708D01*
X118670613Y-116460807D01*
X118670603Y-116460824D01*
X118670598Y-116460833D01*
X118610264Y-116606496D01*
X118610257Y-116606527D01*
X118579500Y-116761150D01*
X118579500Y-116761153D01*
X118579500Y-116918846D01*
X118579500Y-116918848D01*
X118579499Y-116918848D01*
X77970500Y-116918848D01*
X77970500Y-114197642D01*
X81249500Y-114197642D01*
X81249500Y-114402356D01*
X81281521Y-114604530D01*
X81344780Y-114799221D01*
X81344786Y-114799234D01*
X81437708Y-114981601D01*
X81437712Y-114981608D01*
X81437715Y-114981613D01*
X81558028Y-115147213D01*
X81702786Y-115291971D01*
X81857749Y-115404556D01*
X81868390Y-115412287D01*
X81974942Y-115466578D01*
X82035945Y-115497661D01*
X82044329Y-115501933D01*
X82045927Y-115502869D01*
X82049615Y-115504655D01*
X82051640Y-115505661D01*
X82055406Y-115506723D01*
X82097956Y-115520547D01*
X82155135Y-115539126D01*
X82155136Y-115539127D01*
X82198612Y-115553253D01*
X82245465Y-115568477D01*
X82346557Y-115584488D01*
X82447648Y-115600500D01*
X82447649Y-115600500D01*
X82652351Y-115600500D01*
X82652352Y-115600500D01*
X82854534Y-115568477D01*
X83049219Y-115505220D01*
X83231610Y-115412287D01*
X83332880Y-115338710D01*
X83366636Y-115314186D01*
X83366637Y-115314185D01*
X83397163Y-115292007D01*
X83397273Y-115291927D01*
X83398025Y-115291159D01*
X83541966Y-115147219D01*
X83541968Y-115147215D01*
X83541971Y-115147213D01*
X83541982Y-115147198D01*
X83598260Y-115069738D01*
X83640129Y-115012108D01*
X83662287Y-114981610D01*
X83755220Y-114799219D01*
X83818477Y-114604534D01*
X83850500Y-114402352D01*
X83850500Y-114197648D01*
X83829798Y-114066941D01*
X83818477Y-113995465D01*
X83755218Y-113800776D01*
X83755216Y-113800773D01*
X83755215Y-113800769D01*
X83694381Y-113681379D01*
X83692767Y-113678211D01*
X83662287Y-113618390D01*
X83642098Y-113590602D01*
X83541971Y-113452786D01*
X83397213Y-113308028D01*
X83397212Y-113308027D01*
X83397211Y-113308026D01*
X83242209Y-113195413D01*
X83242205Y-113195410D01*
X83231613Y-113187715D01*
X83231612Y-113187714D01*
X83231610Y-113187713D01*
X83203171Y-113173222D01*
X83174654Y-113158691D01*
X83174653Y-113158691D01*
X83049223Y-113094781D01*
X82854534Y-113031522D01*
X82854532Y-113031521D01*
X82854530Y-113031521D01*
X82854529Y-113031520D01*
X82679995Y-113003878D01*
X82663409Y-113001251D01*
X82652354Y-112999500D01*
X82652352Y-112999500D01*
X82447648Y-112999500D01*
X82447647Y-112999500D01*
X82423327Y-113003351D01*
X82423326Y-113003350D01*
X82245468Y-113031521D01*
X82050777Y-113094780D01*
X82050764Y-113094786D01*
X81868397Y-113187708D01*
X81868385Y-113187715D01*
X81702787Y-113308027D01*
X81702784Y-113308029D01*
X81558029Y-113452784D01*
X81558027Y-113452787D01*
X81437715Y-113618385D01*
X81437708Y-113618397D01*
X81344786Y-113800764D01*
X81344780Y-113800777D01*
X81281522Y-113995465D01*
X81249500Y-114197642D01*
X77970500Y-114197642D01*
X77970500Y-79253710D01*
X79429500Y-79253710D01*
X79429500Y-79496288D01*
X79461069Y-79736093D01*
X79461161Y-79736785D01*
X79523947Y-79971104D01*
X79598082Y-80150080D01*
X79609033Y-80176519D01*
X79616776Y-80195213D01*
X79616777Y-80195215D01*
X79738060Y-80405283D01*
X79738062Y-80405286D01*
X79738281Y-80405615D01*
X79739284Y-80406879D01*
X79885726Y-80597728D01*
X79885730Y-80597733D01*
X79885733Y-80597736D01*
X79885739Y-80597743D01*
X79885747Y-80597751D01*
X80057242Y-80769247D01*
X80057256Y-80769260D01*
X80057262Y-80769265D01*
X80249711Y-80916936D01*
X80459788Y-81038224D01*
X80683900Y-81131054D01*
X80918211Y-81193838D01*
X81098586Y-81217584D01*
X81158710Y-81225500D01*
X81158711Y-81225500D01*
X81158712Y-81225500D01*
X81401283Y-81225500D01*
X81401289Y-81225500D01*
X81449388Y-81219167D01*
X81641789Y-81193838D01*
X81876100Y-81131054D01*
X82100212Y-81038224D01*
X82310289Y-80916936D01*
X82502738Y-80769265D01*
X82674265Y-80597738D01*
X82821936Y-80405289D01*
X82943224Y-80195212D01*
X83007902Y-80039064D01*
X83031877Y-79981185D01*
X83031877Y-79981184D01*
X83034368Y-79975170D01*
X83035201Y-79973343D01*
X83035389Y-79972850D01*
X83035577Y-79972375D01*
X83035927Y-79971440D01*
X83036051Y-79971109D01*
X83036052Y-79971102D01*
X83036054Y-79971100D01*
X83098838Y-79736789D01*
X83130500Y-79496288D01*
X83130500Y-79253712D01*
X83098838Y-79013211D01*
X83036054Y-78778900D01*
X83027860Y-78759119D01*
X83021625Y-78744066D01*
X82943845Y-78556286D01*
X82943843Y-78556282D01*
X82943227Y-78554795D01*
X82943226Y-78554794D01*
X82943224Y-78554788D01*
X82918605Y-78512146D01*
X91575000Y-78512146D01*
X91575000Y-78512155D01*
X91575000Y-79580000D01*
X92201277Y-79580000D01*
X92268316Y-79599685D01*
X92314071Y-79652489D01*
X92324015Y-79721647D01*
X92321052Y-79736088D01*
X92310000Y-79777339D01*
X92310000Y-79882660D01*
X92321052Y-79923907D01*
X92319389Y-79993757D01*
X92280226Y-80051619D01*
X92215998Y-80079123D01*
X92201277Y-80080000D01*
X91575000Y-80080000D01*
X91575000Y-81147852D01*
X91581400Y-81207370D01*
X91581402Y-81207377D01*
X91592908Y-81238226D01*
X91631645Y-81342086D01*
X91631649Y-81342093D01*
X91666273Y-81388344D01*
X91717807Y-81457185D01*
X91717813Y-81457191D01*
X91749049Y-81480574D01*
X91832906Y-81543350D01*
X91832913Y-81543354D01*
X91967620Y-81593596D01*
X91967627Y-81593598D01*
X91974468Y-81594333D01*
X92027138Y-81599998D01*
X92027155Y-81599999D01*
X92027172Y-81600000D01*
X92460000Y-81600000D01*
X92460000Y-80338722D01*
X92479685Y-80271683D01*
X92532489Y-80225928D01*
X92601647Y-80215984D01*
X92616082Y-80218945D01*
X92657339Y-80230000D01*
X92762659Y-80230000D01*
X92762661Y-80230000D01*
X92803907Y-80218948D01*
X92873755Y-80220609D01*
X92931618Y-80259771D01*
X92959123Y-80323999D01*
X92960000Y-80338722D01*
X92960000Y-81600000D01*
X93392828Y-81600000D01*
X93392836Y-81600000D01*
X93392847Y-81599999D01*
X93428560Y-81596158D01*
X93452372Y-81593598D01*
X93452379Y-81593596D01*
X93587086Y-81543354D01*
X93587093Y-81543350D01*
X93702187Y-81457190D01*
X93702190Y-81457187D01*
X93788350Y-81342093D01*
X93788354Y-81342086D01*
X93838596Y-81207379D01*
X93838598Y-81207372D01*
X93840551Y-81189214D01*
X93844998Y-81147860D01*
X93845000Y-81147827D01*
X93845000Y-80080000D01*
X93218723Y-80080000D01*
X93151684Y-80060315D01*
X93105929Y-80007511D01*
X93095985Y-79938353D01*
X93098948Y-79923907D01*
X93110000Y-79882661D01*
X93110000Y-79777339D01*
X93098948Y-79736092D01*
X93100611Y-79666243D01*
X93139774Y-79608381D01*
X93204002Y-79580877D01*
X93218723Y-79580000D01*
X93845000Y-79580000D01*
X93845000Y-79105628D01*
X94114500Y-79105628D01*
X94114500Y-80554370D01*
X94139422Y-80711720D01*
X94139423Y-80711723D01*
X94142460Y-80730898D01*
X94142460Y-80730901D01*
X94197689Y-80900878D01*
X94197691Y-80900881D01*
X94205454Y-80916116D01*
X94205456Y-80916123D01*
X94250426Y-81004380D01*
X94278833Y-81060132D01*
X94383889Y-81204728D01*
X94510272Y-81331111D01*
X94654868Y-81436167D01*
X94814119Y-81517309D01*
X94814121Y-81517310D01*
X94894265Y-81543350D01*
X94984103Y-81572540D01*
X95160634Y-81600500D01*
X95160635Y-81600500D01*
X95339365Y-81600500D01*
X95339366Y-81600500D01*
X95515897Y-81572540D01*
X95515900Y-81572539D01*
X95515901Y-81572539D01*
X95685878Y-81517310D01*
X95685878Y-81517309D01*
X95695159Y-81514294D01*
X95695160Y-81514293D01*
X95695165Y-81514292D01*
X95703150Y-81511697D01*
X95712399Y-81503797D01*
X95845132Y-81436167D01*
X95989728Y-81331111D01*
X96116111Y-81204728D01*
X96221167Y-81060132D01*
X96302309Y-80900881D01*
X96345074Y-80769265D01*
X96357539Y-80730901D01*
X96357539Y-80730900D01*
X96357540Y-80730897D01*
X96385500Y-80554366D01*
X96385500Y-79105634D01*
X96370156Y-79008757D01*
X96636952Y-79008757D01*
X96650647Y-79057525D01*
X96654882Y-79100770D01*
X96654500Y-79105627D01*
X96654500Y-80554370D01*
X96679422Y-80711720D01*
X96679423Y-80711723D01*
X96682460Y-80730898D01*
X96682460Y-80730901D01*
X96737689Y-80900878D01*
X96737691Y-80900881D01*
X96745454Y-80916116D01*
X96745456Y-80916123D01*
X96790426Y-81004380D01*
X96818833Y-81060132D01*
X96923889Y-81204728D01*
X97050272Y-81331111D01*
X97097778Y-81365626D01*
X97123962Y-81384650D01*
X97149271Y-81409246D01*
X97162871Y-81426882D01*
X97186545Y-81479710D01*
X97187368Y-81484091D01*
X97189500Y-81506985D01*
X97189500Y-111671590D01*
X97189499Y-111671664D01*
X97189499Y-111796960D01*
X97183600Y-111817046D01*
X97230423Y-111991786D01*
X97250662Y-112026841D01*
X97250663Y-112026841D01*
X97259358Y-112041901D01*
X97259359Y-112041904D01*
X97259360Y-112041904D01*
X97271422Y-112062796D01*
X97271422Y-112062798D01*
X97309467Y-112128695D01*
X97309477Y-112128711D01*
X97309479Y-112128714D01*
X97309484Y-112128721D01*
X97430314Y-112249551D01*
X97430359Y-112249594D01*
X99482817Y-114302052D01*
X99503967Y-114330305D01*
X99519854Y-114359399D01*
X99532640Y-114394635D01*
X99560259Y-114533484D01*
X99560260Y-114533488D01*
X99560261Y-114533491D01*
X99560264Y-114533501D01*
X99560267Y-114533509D01*
X99560272Y-114533523D01*
X99620598Y-114679165D01*
X99620603Y-114679174D01*
X99620613Y-114679191D01*
X99708211Y-114810290D01*
X99708212Y-114810291D01*
X99708217Y-114810297D01*
X99819701Y-114921781D01*
X99819707Y-114921786D01*
X99819711Y-114921789D01*
X99950814Y-115009390D01*
X99950827Y-115009397D01*
X100096498Y-115069735D01*
X100096503Y-115069737D01*
X100251153Y-115100499D01*
X100251156Y-115100500D01*
X100251158Y-115100500D01*
X100408844Y-115100500D01*
X100408845Y-115100499D01*
X100563497Y-115069737D01*
X100642544Y-115036994D01*
X100698437Y-115013844D01*
X100700091Y-115013158D01*
X100709172Y-115009397D01*
X100709172Y-115009396D01*
X100709175Y-115009395D01*
X100709179Y-115009394D01*
X100709180Y-115009392D01*
X100711532Y-115008419D01*
X100720791Y-115004583D01*
X100729677Y-114995698D01*
X100785002Y-114958730D01*
X100840289Y-114921789D01*
X100951789Y-114810289D01*
X101039394Y-114679179D01*
X101043728Y-114668717D01*
X101070313Y-114604534D01*
X101099737Y-114533497D01*
X101130500Y-114378842D01*
X101130500Y-114221158D01*
X101130500Y-114221155D01*
X101130500Y-114220972D01*
X101130062Y-114218958D01*
X101128940Y-114213313D01*
X101128940Y-114213312D01*
X101099738Y-114066509D01*
X101099737Y-114066503D01*
X101070313Y-113995466D01*
X101039397Y-113920827D01*
X101039390Y-113920814D01*
X100951789Y-113789711D01*
X100951786Y-113789707D01*
X100951781Y-113789701D01*
X100840297Y-113678217D01*
X100840290Y-113678211D01*
X100709191Y-113590613D01*
X100709190Y-113590612D01*
X100709185Y-113590609D01*
X100709172Y-113590602D01*
X100709170Y-113590601D01*
X100709165Y-113590598D01*
X100563523Y-113530272D01*
X100563509Y-113530267D01*
X100563501Y-113530264D01*
X100563491Y-113530261D01*
X100563486Y-113530260D01*
X100563483Y-113530259D01*
X100425636Y-113502839D01*
X100392354Y-113491098D01*
X100362980Y-113475733D01*
X100332773Y-113453538D01*
X98439426Y-111560191D01*
X98418274Y-111531935D01*
X98405667Y-111508846D01*
X98390500Y-111449421D01*
X98390500Y-81513275D01*
X98395522Y-81478342D01*
X98397084Y-81473022D01*
X98401798Y-81456966D01*
X98430623Y-81406764D01*
X98433689Y-81403518D01*
X98450945Y-81388348D01*
X98529728Y-81331111D01*
X98656111Y-81204728D01*
X98761167Y-81060132D01*
X98842309Y-80900881D01*
X98885074Y-80769265D01*
X98897539Y-80730901D01*
X98897539Y-80730900D01*
X98897540Y-80730897D01*
X98925500Y-80554366D01*
X98925500Y-79105634D01*
X98910156Y-79008757D01*
X99176952Y-79008757D01*
X99190647Y-79057525D01*
X99194882Y-79100770D01*
X99194500Y-79105627D01*
X99194500Y-80554370D01*
X99219422Y-80711720D01*
X99219423Y-80711723D01*
X99222460Y-80730898D01*
X99222460Y-80730901D01*
X99277689Y-80900878D01*
X99277691Y-80900881D01*
X99285454Y-80916116D01*
X99285456Y-80916123D01*
X99330426Y-81004380D01*
X99358833Y-81060132D01*
X99463889Y-81204728D01*
X99590272Y-81331111D01*
X99637778Y-81365626D01*
X99663962Y-81384650D01*
X99689271Y-81409246D01*
X99702871Y-81426882D01*
X99726545Y-81479710D01*
X99727368Y-81484091D01*
X99729500Y-81506985D01*
X99729500Y-110401590D01*
X99729499Y-110401664D01*
X99729499Y-110526960D01*
X99723600Y-110547046D01*
X99770423Y-110721786D01*
X99790662Y-110756841D01*
X99790663Y-110756841D01*
X99799358Y-110771901D01*
X99799359Y-110771904D01*
X99799360Y-110771904D01*
X99811422Y-110792796D01*
X99811422Y-110792798D01*
X99849467Y-110858695D01*
X99849477Y-110858711D01*
X99849479Y-110858714D01*
X99849484Y-110858721D01*
X99970314Y-110979551D01*
X99970359Y-110979594D01*
X100752817Y-111762052D01*
X100773967Y-111790305D01*
X100789854Y-111819399D01*
X100802640Y-111854635D01*
X100830259Y-111993484D01*
X100830260Y-111993488D01*
X100830261Y-111993491D01*
X100830264Y-111993501D01*
X100830267Y-111993509D01*
X100830272Y-111993523D01*
X100890598Y-112139165D01*
X100890603Y-112139174D01*
X100890613Y-112139191D01*
X100978211Y-112270290D01*
X100978212Y-112270291D01*
X100978217Y-112270297D01*
X101089701Y-112381781D01*
X101089707Y-112381786D01*
X101089711Y-112381789D01*
X101220814Y-112469390D01*
X101220827Y-112469397D01*
X101366498Y-112529735D01*
X101366503Y-112529737D01*
X101521153Y-112560499D01*
X101521156Y-112560500D01*
X101521158Y-112560500D01*
X101678844Y-112560500D01*
X101678845Y-112560499D01*
X101833497Y-112529737D01*
X101979179Y-112469394D01*
X102110289Y-112381789D01*
X102221789Y-112270289D01*
X102309394Y-112139179D01*
X102313728Y-112128717D01*
X102368060Y-111997544D01*
X102369222Y-111994997D01*
X102369730Y-111993510D01*
X102369735Y-111993501D01*
X102369737Y-111993497D01*
X102400500Y-111838842D01*
X102400500Y-111681158D01*
X102400500Y-111681155D01*
X102400500Y-111680973D01*
X102400065Y-111678972D01*
X102398597Y-111671590D01*
X102370395Y-111529815D01*
X102369984Y-111527406D01*
X102369737Y-111526506D01*
X102369737Y-111526503D01*
X102363425Y-111511265D01*
X102309397Y-111380827D01*
X102309390Y-111380814D01*
X102221789Y-111249711D01*
X102221786Y-111249707D01*
X102221785Y-111249706D01*
X102221781Y-111249701D01*
X102110297Y-111138217D01*
X102110291Y-111138212D01*
X102110290Y-111138211D01*
X101979191Y-111050613D01*
X101979190Y-111050612D01*
X101979185Y-111050609D01*
X101979172Y-111050602D01*
X101979165Y-111050598D01*
X101833523Y-110990272D01*
X101833509Y-110990267D01*
X101833501Y-110990264D01*
X101833491Y-110990261D01*
X101833486Y-110990260D01*
X101833483Y-110990259D01*
X101695636Y-110962839D01*
X101662354Y-110951098D01*
X101632980Y-110935733D01*
X101602773Y-110913538D01*
X100979426Y-110290191D01*
X100958274Y-110261935D01*
X100945667Y-110238846D01*
X100930500Y-110179421D01*
X100930500Y-81513275D01*
X100935522Y-81478342D01*
X100937084Y-81473022D01*
X100941798Y-81456966D01*
X100970623Y-81406764D01*
X100973689Y-81403518D01*
X100990945Y-81388348D01*
X101069728Y-81331111D01*
X101196111Y-81204728D01*
X101301167Y-81060132D01*
X101382309Y-80900881D01*
X101425074Y-80769265D01*
X101437539Y-80730901D01*
X101437539Y-80730900D01*
X101437540Y-80730897D01*
X101465500Y-80554366D01*
X101465500Y-79105634D01*
X101450156Y-79008757D01*
X101716952Y-79008757D01*
X101730647Y-79057525D01*
X101734882Y-79100770D01*
X101734500Y-79105627D01*
X101734500Y-80554370D01*
X101759422Y-80711720D01*
X101759423Y-80711723D01*
X101762460Y-80730898D01*
X101762460Y-80730901D01*
X101817689Y-80900878D01*
X101817691Y-80900881D01*
X101825454Y-80916116D01*
X101825456Y-80916123D01*
X101870426Y-81004380D01*
X101898833Y-81060132D01*
X102003889Y-81204728D01*
X102130272Y-81331111D01*
X102177778Y-81365626D01*
X102203962Y-81384650D01*
X102229271Y-81409246D01*
X102242871Y-81426882D01*
X102266545Y-81479710D01*
X102267368Y-81484091D01*
X102269500Y-81506985D01*
X102269500Y-107861590D01*
X102269499Y-107861664D01*
X102269499Y-107986960D01*
X102263600Y-108007046D01*
X102310423Y-108181786D01*
X102330662Y-108216841D01*
X102330663Y-108216841D01*
X102339358Y-108231901D01*
X102339359Y-108231904D01*
X102339360Y-108231904D01*
X102351422Y-108252796D01*
X102351422Y-108252798D01*
X102389467Y-108318695D01*
X102389477Y-108318711D01*
X102389479Y-108318714D01*
X102389484Y-108318721D01*
X102510314Y-108439551D01*
X102510359Y-108439594D01*
X104925139Y-110854374D01*
X104925149Y-110854385D01*
X104929479Y-110858715D01*
X104929480Y-110858716D01*
X105041284Y-110970520D01*
X105041286Y-110970521D01*
X105041290Y-110970524D01*
X105178209Y-111049573D01*
X105178216Y-111049577D01*
X105290019Y-111079534D01*
X105330942Y-111090500D01*
X105330943Y-111090500D01*
X118782404Y-111090500D01*
X118817336Y-111095521D01*
X118849150Y-111104863D01*
X118883098Y-111120735D01*
X119000814Y-111199390D01*
X119000827Y-111199397D01*
X119122288Y-111249707D01*
X119146503Y-111259737D01*
X119146510Y-111259738D01*
X119146510Y-111259739D01*
X119230279Y-111276401D01*
X119301153Y-111290499D01*
X119301156Y-111290500D01*
X119301158Y-111290500D01*
X119458844Y-111290500D01*
X119458845Y-111290499D01*
X119613497Y-111259737D01*
X119759179Y-111199394D01*
X119890289Y-111111789D01*
X120001789Y-111000289D01*
X120089394Y-110869179D01*
X120093728Y-110858717D01*
X120148060Y-110727544D01*
X120149222Y-110724997D01*
X120149730Y-110723510D01*
X120149735Y-110723501D01*
X120149737Y-110723497D01*
X120180500Y-110568842D01*
X120180500Y-110411158D01*
X120180500Y-110411155D01*
X120180500Y-110410973D01*
X120180065Y-110408972D01*
X120178597Y-110401590D01*
X120150395Y-110259815D01*
X120149984Y-110257406D01*
X120149737Y-110256506D01*
X120149737Y-110256503D01*
X120143425Y-110241265D01*
X120089397Y-110110827D01*
X120089390Y-110110814D01*
X120001789Y-109979711D01*
X120001786Y-109979707D01*
X120001785Y-109979706D01*
X120001781Y-109979701D01*
X119890297Y-109868217D01*
X119890291Y-109868212D01*
X119890290Y-109868211D01*
X119759191Y-109780613D01*
X119759190Y-109780612D01*
X119759185Y-109780609D01*
X119759172Y-109780602D01*
X119759165Y-109780598D01*
X119613502Y-109720264D01*
X119613471Y-109720257D01*
X119458847Y-109689500D01*
X119458845Y-109689500D01*
X119458842Y-109689500D01*
X119301158Y-109689500D01*
X119301155Y-109689500D01*
X119301153Y-109689500D01*
X119146527Y-109720257D01*
X119146496Y-109720264D01*
X119000833Y-109780598D01*
X119000824Y-109780603D01*
X119000797Y-109780619D01*
X118883949Y-109858695D01*
X118852115Y-109873927D01*
X118820478Y-109883834D01*
X118783422Y-109889500D01*
X105727927Y-109889500D01*
X105692991Y-109884477D01*
X105667749Y-109877065D01*
X105615004Y-109845769D01*
X103519426Y-107750191D01*
X103498274Y-107721935D01*
X103485667Y-107698846D01*
X103470500Y-107639421D01*
X103470500Y-81513275D01*
X103475522Y-81478342D01*
X103477084Y-81473022D01*
X103481798Y-81456966D01*
X103510623Y-81406764D01*
X103513689Y-81403518D01*
X103530945Y-81388348D01*
X103609728Y-81331111D01*
X103736111Y-81204728D01*
X103841167Y-81060132D01*
X103922309Y-80900881D01*
X103965074Y-80769265D01*
X103977539Y-80730901D01*
X103977539Y-80730900D01*
X103977540Y-80730897D01*
X104005500Y-80554366D01*
X104005500Y-79105634D01*
X103990156Y-79008757D01*
X104256952Y-79008757D01*
X104270647Y-79057525D01*
X104274882Y-79100770D01*
X104274500Y-79105627D01*
X104274500Y-80554370D01*
X104299422Y-80711720D01*
X104299423Y-80711723D01*
X104302460Y-80730898D01*
X104302460Y-80730901D01*
X104357689Y-80900878D01*
X104357691Y-80900881D01*
X104365454Y-80916116D01*
X104365456Y-80916123D01*
X104410426Y-81004380D01*
X104438833Y-81060132D01*
X104543889Y-81204728D01*
X104670272Y-81331111D01*
X104717778Y-81365626D01*
X104743962Y-81384650D01*
X104769271Y-81409246D01*
X104782871Y-81426882D01*
X104806545Y-81479710D01*
X104807368Y-81484091D01*
X104809500Y-81506985D01*
X104809500Y-106591590D01*
X104809499Y-106591664D01*
X104809499Y-106716960D01*
X104803600Y-106737046D01*
X104850423Y-106911786D01*
X104870663Y-106946842D01*
X104891421Y-106982796D01*
X104900894Y-106999203D01*
X104917651Y-107028228D01*
X104918841Y-107030289D01*
X104929480Y-107048716D01*
X104929481Y-107048717D01*
X104929485Y-107048722D01*
X105050314Y-107169551D01*
X105050359Y-107169594D01*
X106195139Y-108314374D01*
X106195149Y-108314385D01*
X106199479Y-108318715D01*
X106199480Y-108318716D01*
X106311284Y-108430520D01*
X106345481Y-108450263D01*
X106356295Y-108456506D01*
X106356296Y-108456507D01*
X106391054Y-108476574D01*
X106391058Y-108476577D01*
X106391059Y-108476577D01*
X106398095Y-108480639D01*
X106398097Y-108480641D01*
X106448213Y-108509576D01*
X106448215Y-108509577D01*
X106600942Y-108550500D01*
X106600943Y-108550500D01*
X121322404Y-108550500D01*
X121357336Y-108555521D01*
X121389150Y-108564863D01*
X121423098Y-108580735D01*
X121540814Y-108659390D01*
X121540827Y-108659397D01*
X121610901Y-108688422D01*
X121686503Y-108719737D01*
X121686505Y-108719737D01*
X121686510Y-108719739D01*
X121770279Y-108736401D01*
X121841153Y-108750499D01*
X121841156Y-108750500D01*
X121841158Y-108750500D01*
X121998844Y-108750500D01*
X121998845Y-108750499D01*
X122153497Y-108719737D01*
X122299179Y-108659394D01*
X122430289Y-108571789D01*
X122541789Y-108460289D01*
X122629394Y-108329179D01*
X122633728Y-108318717D01*
X122688060Y-108187544D01*
X122689222Y-108184997D01*
X122689730Y-108183510D01*
X122689735Y-108183501D01*
X122689737Y-108183497D01*
X122720457Y-108029058D01*
X122720500Y-108028844D01*
X122720500Y-107870973D01*
X122720065Y-107868972D01*
X122718597Y-107861590D01*
X122690395Y-107719815D01*
X122689984Y-107717406D01*
X122689737Y-107716506D01*
X122689737Y-107716503D01*
X122683425Y-107701265D01*
X122629397Y-107570827D01*
X122629390Y-107570814D01*
X122541789Y-107439711D01*
X122541786Y-107439707D01*
X122541781Y-107439701D01*
X122430297Y-107328217D01*
X122430291Y-107328212D01*
X122430290Y-107328211D01*
X122299191Y-107240613D01*
X122299190Y-107240612D01*
X122299185Y-107240609D01*
X122299172Y-107240602D01*
X122299165Y-107240598D01*
X122153502Y-107180264D01*
X122153471Y-107180257D01*
X121998847Y-107149500D01*
X121998845Y-107149500D01*
X121998842Y-107149500D01*
X121841158Y-107149500D01*
X121841155Y-107149500D01*
X121841153Y-107149500D01*
X121686527Y-107180257D01*
X121686496Y-107180264D01*
X121540833Y-107240598D01*
X121540824Y-107240603D01*
X121540797Y-107240619D01*
X121423949Y-107318695D01*
X121392115Y-107333927D01*
X121360478Y-107343834D01*
X121323422Y-107349500D01*
X106997927Y-107349500D01*
X106962991Y-107344477D01*
X106937749Y-107337065D01*
X106885004Y-107305769D01*
X106059426Y-106480191D01*
X106038274Y-106451935D01*
X106025667Y-106428846D01*
X106010500Y-106369421D01*
X106010500Y-81513275D01*
X106015522Y-81478342D01*
X106017084Y-81473022D01*
X106021798Y-81456966D01*
X106050623Y-81406764D01*
X106053689Y-81403518D01*
X106070945Y-81388348D01*
X106149728Y-81331111D01*
X106276111Y-81204728D01*
X106381167Y-81060132D01*
X106462309Y-80900881D01*
X106505074Y-80769265D01*
X106517539Y-80730901D01*
X106517539Y-80730900D01*
X106517540Y-80730897D01*
X106545500Y-80554366D01*
X106545500Y-79105634D01*
X106530156Y-79008757D01*
X106796952Y-79008757D01*
X106810647Y-79057525D01*
X106814882Y-79100770D01*
X106814500Y-79105627D01*
X106814500Y-80554370D01*
X106839422Y-80711720D01*
X106839423Y-80711723D01*
X106842460Y-80730898D01*
X106842460Y-80730901D01*
X106897689Y-80900878D01*
X106897691Y-80900881D01*
X106905454Y-80916116D01*
X106905456Y-80916123D01*
X106950426Y-81004380D01*
X106978833Y-81060132D01*
X107083889Y-81204728D01*
X107210272Y-81331111D01*
X107257778Y-81365626D01*
X107283962Y-81384650D01*
X107309271Y-81409246D01*
X107322871Y-81426882D01*
X107346545Y-81479710D01*
X107347368Y-81484091D01*
X107349500Y-81506985D01*
X107349500Y-103542404D01*
X107344476Y-103577341D01*
X107335136Y-103609148D01*
X107319262Y-103643102D01*
X107240613Y-103760807D01*
X107240603Y-103760824D01*
X107240598Y-103760833D01*
X107180264Y-103906496D01*
X107180257Y-103906527D01*
X107149500Y-104061150D01*
X107149500Y-104061153D01*
X107149500Y-104218846D01*
X107149500Y-104218848D01*
X107149499Y-104218848D01*
X107180257Y-104373471D01*
X107180264Y-104373502D01*
X107240598Y-104519165D01*
X107240603Y-104519174D01*
X107240613Y-104519191D01*
X107328211Y-104650290D01*
X107328212Y-104650291D01*
X107328217Y-104650297D01*
X107439701Y-104761781D01*
X107439707Y-104761786D01*
X107439711Y-104761789D01*
X107570814Y-104849390D01*
X107570827Y-104849397D01*
X107716498Y-104909735D01*
X107716503Y-104909737D01*
X107871153Y-104940499D01*
X107871156Y-104940500D01*
X107871158Y-104940500D01*
X108028844Y-104940500D01*
X108028845Y-104940499D01*
X108183497Y-104909737D01*
X108329179Y-104849394D01*
X108460289Y-104761789D01*
X108571789Y-104650289D01*
X108659394Y-104519179D01*
X108719737Y-104373497D01*
X108750500Y-104218842D01*
X108750500Y-104061158D01*
X108750500Y-104061155D01*
X108750500Y-104060973D01*
X108750065Y-104058972D01*
X108720397Y-103909824D01*
X108719994Y-103907467D01*
X108719738Y-103906508D01*
X108719737Y-103906506D01*
X108719737Y-103906503D01*
X108719735Y-103906498D01*
X108659397Y-103760827D01*
X108659390Y-103760814D01*
X108630235Y-103717180D01*
X108581304Y-103643949D01*
X108566071Y-103612111D01*
X108556165Y-103580474D01*
X108550500Y-103543422D01*
X108550500Y-96520000D01*
X113030000Y-96520000D01*
X113030001Y-96520001D01*
X115569999Y-97790000D01*
X125730000Y-97790000D01*
X125730001Y-97790000D01*
X128269998Y-96520001D01*
X128270000Y-96520000D01*
X128270000Y-88900000D01*
X113030000Y-88900000D01*
X113030000Y-96520000D01*
X108550500Y-96520000D01*
X108550500Y-81513275D01*
X108555522Y-81478342D01*
X108557084Y-81473022D01*
X108561798Y-81456966D01*
X108590623Y-81406764D01*
X108593689Y-81403518D01*
X108610945Y-81388348D01*
X108689728Y-81331111D01*
X108816111Y-81204728D01*
X108921167Y-81060132D01*
X109002309Y-80900881D01*
X109045074Y-80769265D01*
X109057539Y-80730901D01*
X109057539Y-80730900D01*
X109057540Y-80730897D01*
X109085500Y-80554366D01*
X109085500Y-79105634D01*
X109070156Y-79008757D01*
X109336952Y-79008757D01*
X109350647Y-79057525D01*
X109354882Y-79100770D01*
X109354500Y-79105627D01*
X109354500Y-80554370D01*
X109379422Y-80711720D01*
X109379423Y-80711723D01*
X109382460Y-80730898D01*
X109382460Y-80730901D01*
X109437689Y-80900878D01*
X109437691Y-80900881D01*
X109445454Y-80916116D01*
X109445456Y-80916123D01*
X109490426Y-81004380D01*
X109518833Y-81060132D01*
X109623889Y-81204728D01*
X109750272Y-81331111D01*
X109894868Y-81436167D01*
X110054119Y-81517309D01*
X110054121Y-81517310D01*
X110134265Y-81543350D01*
X110224103Y-81572540D01*
X110400634Y-81600500D01*
X110400635Y-81600500D01*
X110579365Y-81600500D01*
X110579366Y-81600500D01*
X110755897Y-81572540D01*
X110755900Y-81572539D01*
X110755901Y-81572539D01*
X110925878Y-81517310D01*
X110925878Y-81517309D01*
X110935159Y-81514294D01*
X110935160Y-81514293D01*
X110935165Y-81514292D01*
X110943150Y-81511697D01*
X110952399Y-81503797D01*
X111085132Y-81436167D01*
X111229728Y-81331111D01*
X111356111Y-81204728D01*
X111461167Y-81060132D01*
X111542309Y-80900881D01*
X111585074Y-80769265D01*
X111597539Y-80730901D01*
X111597539Y-80730900D01*
X111597540Y-80730897D01*
X111625500Y-80554366D01*
X111625500Y-79105634D01*
X111617880Y-79057525D01*
X111598710Y-78936489D01*
X111598709Y-78936488D01*
X111597540Y-78929103D01*
X111597539Y-78929099D01*
X111597539Y-78929098D01*
X111542310Y-78759121D01*
X111542308Y-78759118D01*
X111530507Y-78735957D01*
X111461167Y-78599868D01*
X111459375Y-78597402D01*
X111447996Y-78581739D01*
X111447994Y-78581737D01*
X111429512Y-78556299D01*
X111356111Y-78455272D01*
X111229728Y-78328889D01*
X111085132Y-78223833D01*
X111043866Y-78202807D01*
X110932337Y-78145980D01*
X110930723Y-78145035D01*
X110925879Y-78142689D01*
X110755900Y-78087460D01*
X110622937Y-78066401D01*
X110622931Y-78066400D01*
X110579366Y-78059500D01*
X110579365Y-78059500D01*
X110400635Y-78059500D01*
X110400634Y-78059500D01*
X110357069Y-78066400D01*
X110357063Y-78066401D01*
X110243275Y-78084423D01*
X110243274Y-78084423D01*
X110224101Y-78087460D01*
X110224098Y-78087460D01*
X110054121Y-78142689D01*
X110054118Y-78142691D01*
X110038882Y-78150454D01*
X110038876Y-78150456D01*
X109894866Y-78223833D01*
X109750268Y-78328891D01*
X109623891Y-78455268D01*
X109518833Y-78599866D01*
X109440980Y-78752661D01*
X109440646Y-78753013D01*
X109437689Y-78759119D01*
X109382460Y-78929094D01*
X109380934Y-78938735D01*
X109376951Y-78938104D01*
X109362775Y-78986382D01*
X109336952Y-79008757D01*
X109070156Y-79008757D01*
X109057540Y-78929103D01*
X109057539Y-78929099D01*
X109057539Y-78929098D01*
X109002310Y-78759121D01*
X109002309Y-78759119D01*
X108999964Y-78754276D01*
X108999018Y-78752661D01*
X108990507Y-78735956D01*
X108989478Y-78733937D01*
X108921168Y-78599869D01*
X108886148Y-78551669D01*
X108816111Y-78455272D01*
X108689728Y-78328889D01*
X108545132Y-78223833D01*
X108503866Y-78202807D01*
X108392337Y-78145980D01*
X108390723Y-78145035D01*
X108385879Y-78142689D01*
X108215900Y-78087460D01*
X108082937Y-78066401D01*
X108082931Y-78066400D01*
X108039366Y-78059500D01*
X108039365Y-78059500D01*
X107860635Y-78059500D01*
X107860634Y-78059500D01*
X107817069Y-78066400D01*
X107817063Y-78066401D01*
X107703275Y-78084423D01*
X107703274Y-78084423D01*
X107684101Y-78087460D01*
X107684098Y-78087460D01*
X107514121Y-78142689D01*
X107514118Y-78142691D01*
X107498882Y-78150454D01*
X107498876Y-78150456D01*
X107354866Y-78223833D01*
X107210268Y-78328891D01*
X107083891Y-78455268D01*
X106978833Y-78599866D01*
X106900980Y-78752661D01*
X106900646Y-78753013D01*
X106897689Y-78759119D01*
X106842460Y-78929094D01*
X106840934Y-78938735D01*
X106836951Y-78938104D01*
X106822775Y-78986382D01*
X106796952Y-79008757D01*
X106530156Y-79008757D01*
X106517540Y-78929103D01*
X106517539Y-78929099D01*
X106517539Y-78929098D01*
X106462310Y-78759121D01*
X106462309Y-78759119D01*
X106459964Y-78754276D01*
X106459018Y-78752661D01*
X106450507Y-78735956D01*
X106449478Y-78733937D01*
X106381168Y-78599869D01*
X106346148Y-78551669D01*
X106276111Y-78455272D01*
X106149728Y-78328889D01*
X106005132Y-78223833D01*
X105963866Y-78202807D01*
X105852337Y-78145980D01*
X105850723Y-78145035D01*
X105845879Y-78142689D01*
X105675900Y-78087460D01*
X105542937Y-78066401D01*
X105542931Y-78066400D01*
X105499366Y-78059500D01*
X105499365Y-78059500D01*
X105320635Y-78059500D01*
X105320634Y-78059500D01*
X105277069Y-78066400D01*
X105277063Y-78066401D01*
X105163275Y-78084423D01*
X105163274Y-78084423D01*
X105144101Y-78087460D01*
X105144098Y-78087460D01*
X104974121Y-78142689D01*
X104974118Y-78142691D01*
X104958882Y-78150454D01*
X104958876Y-78150456D01*
X104814866Y-78223833D01*
X104670268Y-78328891D01*
X104543891Y-78455268D01*
X104438833Y-78599866D01*
X104360980Y-78752661D01*
X104360646Y-78753013D01*
X104357689Y-78759119D01*
X104302460Y-78929094D01*
X104300934Y-78938735D01*
X104296951Y-78938104D01*
X104282775Y-78986382D01*
X104256952Y-79008757D01*
X103990156Y-79008757D01*
X103977540Y-78929103D01*
X103977539Y-78929099D01*
X103977539Y-78929098D01*
X103922310Y-78759121D01*
X103922309Y-78759119D01*
X103919964Y-78754276D01*
X103919018Y-78752661D01*
X103910507Y-78735956D01*
X103909478Y-78733937D01*
X103841168Y-78599869D01*
X103806148Y-78551669D01*
X103736111Y-78455272D01*
X103609728Y-78328889D01*
X103465132Y-78223833D01*
X103423866Y-78202807D01*
X103312337Y-78145980D01*
X103310723Y-78145035D01*
X103305879Y-78142689D01*
X103135900Y-78087460D01*
X103002937Y-78066401D01*
X103002931Y-78066400D01*
X102959366Y-78059500D01*
X102959365Y-78059500D01*
X102780635Y-78059500D01*
X102780634Y-78059500D01*
X102737069Y-78066400D01*
X102737063Y-78066401D01*
X102623275Y-78084423D01*
X102623274Y-78084423D01*
X102604101Y-78087460D01*
X102604098Y-78087460D01*
X102434121Y-78142689D01*
X102434118Y-78142691D01*
X102418882Y-78150454D01*
X102418876Y-78150456D01*
X102274866Y-78223833D01*
X102130268Y-78328891D01*
X102003891Y-78455268D01*
X101898833Y-78599866D01*
X101820980Y-78752661D01*
X101820646Y-78753013D01*
X101817689Y-78759119D01*
X101762460Y-78929094D01*
X101760934Y-78938735D01*
X101756951Y-78938104D01*
X101742775Y-78986382D01*
X101716952Y-79008757D01*
X101450156Y-79008757D01*
X101437540Y-78929103D01*
X101437539Y-78929099D01*
X101437539Y-78929098D01*
X101382310Y-78759121D01*
X101382309Y-78759119D01*
X101379964Y-78754276D01*
X101379018Y-78752661D01*
X101370507Y-78735956D01*
X101369478Y-78733937D01*
X101301168Y-78599869D01*
X101266148Y-78551669D01*
X101196111Y-78455272D01*
X101069728Y-78328889D01*
X100925132Y-78223833D01*
X100883866Y-78202807D01*
X100772337Y-78145980D01*
X100770723Y-78145035D01*
X100765879Y-78142689D01*
X100595900Y-78087460D01*
X100462937Y-78066401D01*
X100462931Y-78066400D01*
X100419366Y-78059500D01*
X100419365Y-78059500D01*
X100240635Y-78059500D01*
X100240634Y-78059500D01*
X100197069Y-78066400D01*
X100197063Y-78066401D01*
X100083275Y-78084423D01*
X100083274Y-78084423D01*
X100064101Y-78087460D01*
X100064098Y-78087460D01*
X99894121Y-78142689D01*
X99894118Y-78142691D01*
X99878882Y-78150454D01*
X99878876Y-78150456D01*
X99734866Y-78223833D01*
X99590268Y-78328891D01*
X99463891Y-78455268D01*
X99358833Y-78599866D01*
X99280980Y-78752661D01*
X99280646Y-78753013D01*
X99277689Y-78759119D01*
X99222460Y-78929094D01*
X99220934Y-78938735D01*
X99216951Y-78938104D01*
X99202775Y-78986382D01*
X99176952Y-79008757D01*
X98910156Y-79008757D01*
X98897540Y-78929103D01*
X98897539Y-78929099D01*
X98897539Y-78929098D01*
X98842310Y-78759121D01*
X98842309Y-78759119D01*
X98839964Y-78754276D01*
X98839018Y-78752661D01*
X98830507Y-78735956D01*
X98829478Y-78733937D01*
X98761168Y-78599869D01*
X98726148Y-78551669D01*
X98656111Y-78455272D01*
X98529728Y-78328889D01*
X98385132Y-78223833D01*
X98343866Y-78202807D01*
X98232337Y-78145980D01*
X98230723Y-78145035D01*
X98225879Y-78142689D01*
X98055900Y-78087460D01*
X97922937Y-78066401D01*
X97922931Y-78066400D01*
X97879366Y-78059500D01*
X97879365Y-78059500D01*
X97700635Y-78059500D01*
X97700634Y-78059500D01*
X97657069Y-78066400D01*
X97657063Y-78066401D01*
X97543275Y-78084423D01*
X97543274Y-78084423D01*
X97524101Y-78087460D01*
X97524098Y-78087460D01*
X97354121Y-78142689D01*
X97354118Y-78142691D01*
X97338882Y-78150454D01*
X97338876Y-78150456D01*
X97194866Y-78223833D01*
X97050268Y-78328891D01*
X96923891Y-78455268D01*
X96818833Y-78599866D01*
X96740980Y-78752661D01*
X96740646Y-78753013D01*
X96737689Y-78759119D01*
X96682460Y-78929094D01*
X96680934Y-78938735D01*
X96676951Y-78938104D01*
X96662775Y-78986382D01*
X96636952Y-79008757D01*
X96370156Y-79008757D01*
X96357540Y-78929103D01*
X96357539Y-78929099D01*
X96357539Y-78929098D01*
X96302310Y-78759121D01*
X96302309Y-78759119D01*
X96299964Y-78754276D01*
X96299018Y-78752661D01*
X96290507Y-78735956D01*
X96289478Y-78733937D01*
X96221168Y-78599869D01*
X96186148Y-78551669D01*
X96116111Y-78455272D01*
X95989728Y-78328889D01*
X95845132Y-78223833D01*
X95803866Y-78202807D01*
X95692337Y-78145980D01*
X95690723Y-78145035D01*
X95685879Y-78142689D01*
X95515900Y-78087460D01*
X95382937Y-78066401D01*
X95382931Y-78066400D01*
X95339366Y-78059500D01*
X95339365Y-78059500D01*
X95160635Y-78059500D01*
X95160634Y-78059500D01*
X95117069Y-78066400D01*
X95117063Y-78066401D01*
X95003275Y-78084423D01*
X95003274Y-78084423D01*
X94984101Y-78087460D01*
X94984098Y-78087460D01*
X94814121Y-78142689D01*
X94814118Y-78142691D01*
X94798882Y-78150454D01*
X94798876Y-78150456D01*
X94654866Y-78223833D01*
X94510268Y-78328891D01*
X94383891Y-78455268D01*
X94278833Y-78599866D01*
X94205456Y-78743874D01*
X94205452Y-78743885D01*
X94197691Y-78759118D01*
X94197689Y-78759121D01*
X94142460Y-78929098D01*
X94142460Y-78929101D01*
X94139423Y-78948271D01*
X94139422Y-78948277D01*
X94114500Y-79105628D01*
X93845000Y-79105628D01*
X93845000Y-78512172D01*
X93844998Y-78512138D01*
X93838598Y-78452628D01*
X93838596Y-78452621D01*
X93838596Y-78452620D01*
X93788354Y-78317913D01*
X93788350Y-78317906D01*
X93718120Y-78224091D01*
X93702191Y-78202813D01*
X93702185Y-78202807D01*
X93626274Y-78145980D01*
X93587093Y-78116649D01*
X93587086Y-78116645D01*
X93500694Y-78084423D01*
X93452377Y-78066402D01*
X93452370Y-78066400D01*
X93392852Y-78060000D01*
X93392844Y-78060000D01*
X92960000Y-78060000D01*
X92960000Y-79321277D01*
X92940315Y-79388316D01*
X92887511Y-79434071D01*
X92818353Y-79444015D01*
X92803911Y-79441052D01*
X92762661Y-79430000D01*
X92762660Y-79430000D01*
X92657339Y-79430000D01*
X92616092Y-79441051D01*
X92546243Y-79439389D01*
X92488381Y-79400226D01*
X92460877Y-79335998D01*
X92460000Y-79321277D01*
X92460000Y-78060000D01*
X92027155Y-78060000D01*
X92027146Y-78060000D01*
X91967628Y-78066400D01*
X91967621Y-78066402D01*
X91832910Y-78116646D01*
X91832907Y-78116648D01*
X91717813Y-78202807D01*
X91717807Y-78202813D01*
X91631648Y-78317907D01*
X91631646Y-78317910D01*
X91581402Y-78452621D01*
X91581400Y-78452628D01*
X91575000Y-78512146D01*
X82918605Y-78512146D01*
X82821936Y-78344711D01*
X82674265Y-78152262D01*
X82674260Y-78152256D01*
X82674259Y-78152255D01*
X82674247Y-78152242D01*
X82502751Y-77980747D01*
X82502743Y-77980739D01*
X82502736Y-77980733D01*
X82502733Y-77980730D01*
X82502728Y-77980726D01*
X82318042Y-77839013D01*
X82310293Y-77833067D01*
X82310292Y-77833066D01*
X82310289Y-77833064D01*
X82127514Y-77727539D01*
X82127201Y-77727358D01*
X82127086Y-77727291D01*
X82100215Y-77711777D01*
X82100208Y-77711774D01*
X81876104Y-77618947D01*
X81641781Y-77556160D01*
X81401290Y-77524500D01*
X81401289Y-77524500D01*
X81401288Y-77524500D01*
X81158712Y-77524500D01*
X81158711Y-77524500D01*
X81158710Y-77524500D01*
X80918217Y-77556160D01*
X80683894Y-77618947D01*
X80459790Y-77711774D01*
X80459782Y-77711778D01*
X80249706Y-77833067D01*
X80249697Y-77833073D01*
X80057270Y-77980726D01*
X80057255Y-77980740D01*
X80057247Y-77980747D01*
X79885747Y-78152247D01*
X79885740Y-78152255D01*
X79885726Y-78152270D01*
X79738073Y-78344697D01*
X79738067Y-78344706D01*
X79616778Y-78554782D01*
X79616774Y-78554790D01*
X79523947Y-78778894D01*
X79461160Y-79013217D01*
X79429500Y-79253710D01*
X77970500Y-79253710D01*
X77970500Y-78746096D01*
X77970566Y-78742053D01*
X77970699Y-78737976D01*
X77970899Y-78733906D01*
X77974819Y-78674109D01*
X77979684Y-78599869D01*
X77987152Y-78485918D01*
X77987946Y-78477864D01*
X77989004Y-78469825D01*
X77990324Y-78461841D01*
X77991631Y-78455270D01*
X78037619Y-78224075D01*
X78039459Y-78216187D01*
X78041560Y-78208348D01*
X78043902Y-78200624D01*
X78089465Y-78066403D01*
X78121847Y-77971007D01*
X78124681Y-77963479D01*
X78127790Y-77955970D01*
X78131125Y-77948609D01*
X78238363Y-77731153D01*
X78242156Y-77724055D01*
X78246243Y-77716976D01*
X78250489Y-77710149D01*
X78385195Y-77508547D01*
X78389911Y-77501966D01*
X78394848Y-77495532D01*
X78399954Y-77489309D01*
X78559843Y-77306991D01*
X78565360Y-77301101D01*
X78571101Y-77295360D01*
X78576991Y-77289843D01*
X78759309Y-77129954D01*
X78765532Y-77124848D01*
X78771971Y-77119906D01*
X78778552Y-77115192D01*
X78980149Y-76980489D01*
X78986976Y-76976243D01*
X78994055Y-76972156D01*
X79001153Y-76968363D01*
X79218609Y-76861125D01*
X79225968Y-76857791D01*
X79233482Y-76854679D01*
X79241011Y-76851845D01*
X79404945Y-76796197D01*
X79470639Y-76773897D01*
X79478347Y-76771560D01*
X79486206Y-76769454D01*
X79494075Y-76767619D01*
X79731849Y-76720322D01*
X79739840Y-76719003D01*
X79745574Y-76718247D01*
X79747852Y-76717947D01*
X79755916Y-76717152D01*
X79984848Y-76702148D01*
X80003967Y-76700895D01*
X80008008Y-76700698D01*
X80012065Y-76700566D01*
X80016097Y-76700500D01*
X161283903Y-76700500D01*
X161287933Y-76700566D01*
G37*
%TD.AperFunction*%
%TD*%
M02*
