%TF.GenerationSoftware,KiCad,Pcbnew,10.0.0*%
%TF.CreationDate,2026-07-26T07:02:41+09:00*%
%TF.ProjectId,metric-gauge,65737033-322d-4647-9561-6c2d67617567,rev?*%
%TF.SameCoordinates,Original*%
%TF.FileFunction,Legend,Bot*%
%TF.FilePolarity,Positive*%
%FSLAX46Y46*%
G04 Gerber Fmt 4.6, Leading zero omitted, Abs format (unit mm)*
G04 Created by KiCad (PCBNEW 10.0.0) date 2026-07-26 07:02:41*
%MOMM*%
%LPD*%
G01*
G04 APERTURE LIST*
%ADD10C,0.100000*%
%ADD11C,0.150000*%
%ADD12C,0.120000*%
G04 APERTURE END LIST*
D10*
X91854912Y-92124836D02*
X91902531Y-92029598D01*
X91902531Y-92029598D02*
X91902531Y-91839122D01*
X91902531Y-91839122D02*
X91854912Y-91743884D01*
X91854912Y-91743884D02*
X91759673Y-91696265D01*
X91759673Y-91696265D02*
X91378721Y-91696265D01*
X91378721Y-91696265D02*
X91283483Y-91743884D01*
X91283483Y-91743884D02*
X91235864Y-91839122D01*
X91235864Y-91839122D02*
X91235864Y-92029598D01*
X91235864Y-92029598D02*
X91283483Y-92124836D01*
X91283483Y-92124836D02*
X91378721Y-92172455D01*
X91378721Y-92172455D02*
X91473959Y-92172455D01*
X91473959Y-92172455D02*
X91569197Y-91696265D01*
X91854912Y-92553408D02*
X91902531Y-92648646D01*
X91902531Y-92648646D02*
X91902531Y-92839122D01*
X91902531Y-92839122D02*
X91854912Y-92934360D01*
X91854912Y-92934360D02*
X91759673Y-92981979D01*
X91759673Y-92981979D02*
X91712054Y-92981979D01*
X91712054Y-92981979D02*
X91616816Y-92934360D01*
X91616816Y-92934360D02*
X91569197Y-92839122D01*
X91569197Y-92839122D02*
X91569197Y-92696265D01*
X91569197Y-92696265D02*
X91521578Y-92601027D01*
X91521578Y-92601027D02*
X91426340Y-92553408D01*
X91426340Y-92553408D02*
X91378721Y-92553408D01*
X91378721Y-92553408D02*
X91283483Y-92601027D01*
X91283483Y-92601027D02*
X91235864Y-92696265D01*
X91235864Y-92696265D02*
X91235864Y-92839122D01*
X91235864Y-92839122D02*
X91283483Y-92934360D01*
X91235864Y-93410551D02*
X92235864Y-93410551D01*
X91283483Y-93410551D02*
X91235864Y-93505789D01*
X91235864Y-93505789D02*
X91235864Y-93696265D01*
X91235864Y-93696265D02*
X91283483Y-93791503D01*
X91283483Y-93791503D02*
X91331102Y-93839122D01*
X91331102Y-93839122D02*
X91426340Y-93886741D01*
X91426340Y-93886741D02*
X91712054Y-93886741D01*
X91712054Y-93886741D02*
X91807292Y-93839122D01*
X91807292Y-93839122D02*
X91854912Y-93791503D01*
X91854912Y-93791503D02*
X91902531Y-93696265D01*
X91902531Y-93696265D02*
X91902531Y-93505789D01*
X91902531Y-93505789D02*
X91854912Y-93410551D01*
X91521578Y-94315313D02*
X91521578Y-95077218D01*
X91902531Y-95981979D02*
X90902531Y-95981979D01*
X91854912Y-95981979D02*
X91902531Y-95886741D01*
X91902531Y-95886741D02*
X91902531Y-95696265D01*
X91902531Y-95696265D02*
X91854912Y-95601027D01*
X91854912Y-95601027D02*
X91807292Y-95553408D01*
X91807292Y-95553408D02*
X91712054Y-95505789D01*
X91712054Y-95505789D02*
X91426340Y-95505789D01*
X91426340Y-95505789D02*
X91331102Y-95553408D01*
X91331102Y-95553408D02*
X91283483Y-95601027D01*
X91283483Y-95601027D02*
X91235864Y-95696265D01*
X91235864Y-95696265D02*
X91235864Y-95886741D01*
X91235864Y-95886741D02*
X91283483Y-95981979D01*
X91235864Y-96886741D02*
X91902531Y-96886741D01*
X91235864Y-96458170D02*
X91759673Y-96458170D01*
X91759673Y-96458170D02*
X91854912Y-96505789D01*
X91854912Y-96505789D02*
X91902531Y-96601027D01*
X91902531Y-96601027D02*
X91902531Y-96743884D01*
X91902531Y-96743884D02*
X91854912Y-96839122D01*
X91854912Y-96839122D02*
X91807292Y-96886741D01*
X91902531Y-97791503D02*
X91378721Y-97791503D01*
X91378721Y-97791503D02*
X91283483Y-97743884D01*
X91283483Y-97743884D02*
X91235864Y-97648646D01*
X91235864Y-97648646D02*
X91235864Y-97458170D01*
X91235864Y-97458170D02*
X91283483Y-97362932D01*
X91854912Y-97791503D02*
X91902531Y-97696265D01*
X91902531Y-97696265D02*
X91902531Y-97458170D01*
X91902531Y-97458170D02*
X91854912Y-97362932D01*
X91854912Y-97362932D02*
X91759673Y-97315313D01*
X91759673Y-97315313D02*
X91664435Y-97315313D01*
X91664435Y-97315313D02*
X91569197Y-97362932D01*
X91569197Y-97362932D02*
X91521578Y-97458170D01*
X91521578Y-97458170D02*
X91521578Y-97696265D01*
X91521578Y-97696265D02*
X91473959Y-97791503D01*
X91902531Y-98410551D02*
X91854912Y-98315313D01*
X91854912Y-98315313D02*
X91759673Y-98267694D01*
X91759673Y-98267694D02*
X90902531Y-98267694D01*
X91521578Y-98791504D02*
X91521578Y-99553409D01*
X91235864Y-100458170D02*
X92045388Y-100458170D01*
X92045388Y-100458170D02*
X92140626Y-100410551D01*
X92140626Y-100410551D02*
X92188245Y-100362932D01*
X92188245Y-100362932D02*
X92235864Y-100267694D01*
X92235864Y-100267694D02*
X92235864Y-100124837D01*
X92235864Y-100124837D02*
X92188245Y-100029599D01*
X91854912Y-100458170D02*
X91902531Y-100362932D01*
X91902531Y-100362932D02*
X91902531Y-100172456D01*
X91902531Y-100172456D02*
X91854912Y-100077218D01*
X91854912Y-100077218D02*
X91807292Y-100029599D01*
X91807292Y-100029599D02*
X91712054Y-99981980D01*
X91712054Y-99981980D02*
X91426340Y-99981980D01*
X91426340Y-99981980D02*
X91331102Y-100029599D01*
X91331102Y-100029599D02*
X91283483Y-100077218D01*
X91283483Y-100077218D02*
X91235864Y-100172456D01*
X91235864Y-100172456D02*
X91235864Y-100362932D01*
X91235864Y-100362932D02*
X91283483Y-100458170D01*
X91902531Y-101362932D02*
X91378721Y-101362932D01*
X91378721Y-101362932D02*
X91283483Y-101315313D01*
X91283483Y-101315313D02*
X91235864Y-101220075D01*
X91235864Y-101220075D02*
X91235864Y-101029599D01*
X91235864Y-101029599D02*
X91283483Y-100934361D01*
X91854912Y-101362932D02*
X91902531Y-101267694D01*
X91902531Y-101267694D02*
X91902531Y-101029599D01*
X91902531Y-101029599D02*
X91854912Y-100934361D01*
X91854912Y-100934361D02*
X91759673Y-100886742D01*
X91759673Y-100886742D02*
X91664435Y-100886742D01*
X91664435Y-100886742D02*
X91569197Y-100934361D01*
X91569197Y-100934361D02*
X91521578Y-101029599D01*
X91521578Y-101029599D02*
X91521578Y-101267694D01*
X91521578Y-101267694D02*
X91473959Y-101362932D01*
X91235864Y-102267694D02*
X91902531Y-102267694D01*
X91235864Y-101839123D02*
X91759673Y-101839123D01*
X91759673Y-101839123D02*
X91854912Y-101886742D01*
X91854912Y-101886742D02*
X91902531Y-101981980D01*
X91902531Y-101981980D02*
X91902531Y-102124837D01*
X91902531Y-102124837D02*
X91854912Y-102220075D01*
X91854912Y-102220075D02*
X91807292Y-102267694D01*
X91235864Y-103172456D02*
X92045388Y-103172456D01*
X92045388Y-103172456D02*
X92140626Y-103124837D01*
X92140626Y-103124837D02*
X92188245Y-103077218D01*
X92188245Y-103077218D02*
X92235864Y-102981980D01*
X92235864Y-102981980D02*
X92235864Y-102839123D01*
X92235864Y-102839123D02*
X92188245Y-102743885D01*
X91854912Y-103172456D02*
X91902531Y-103077218D01*
X91902531Y-103077218D02*
X91902531Y-102886742D01*
X91902531Y-102886742D02*
X91854912Y-102791504D01*
X91854912Y-102791504D02*
X91807292Y-102743885D01*
X91807292Y-102743885D02*
X91712054Y-102696266D01*
X91712054Y-102696266D02*
X91426340Y-102696266D01*
X91426340Y-102696266D02*
X91331102Y-102743885D01*
X91331102Y-102743885D02*
X91283483Y-102791504D01*
X91283483Y-102791504D02*
X91235864Y-102886742D01*
X91235864Y-102886742D02*
X91235864Y-103077218D01*
X91235864Y-103077218D02*
X91283483Y-103172456D01*
X91854912Y-104029599D02*
X91902531Y-103934361D01*
X91902531Y-103934361D02*
X91902531Y-103743885D01*
X91902531Y-103743885D02*
X91854912Y-103648647D01*
X91854912Y-103648647D02*
X91759673Y-103601028D01*
X91759673Y-103601028D02*
X91378721Y-103601028D01*
X91378721Y-103601028D02*
X91283483Y-103648647D01*
X91283483Y-103648647D02*
X91235864Y-103743885D01*
X91235864Y-103743885D02*
X91235864Y-103934361D01*
X91235864Y-103934361D02*
X91283483Y-104029599D01*
X91283483Y-104029599D02*
X91378721Y-104077218D01*
X91378721Y-104077218D02*
X91473959Y-104077218D01*
X91473959Y-104077218D02*
X91569197Y-103601028D01*
X92607713Y-91696265D02*
X92560094Y-91743884D01*
X92560094Y-91743884D02*
X92512475Y-91839122D01*
X92512475Y-91839122D02*
X92512475Y-92077217D01*
X92512475Y-92077217D02*
X92560094Y-92172455D01*
X92560094Y-92172455D02*
X92607713Y-92220074D01*
X92607713Y-92220074D02*
X92702951Y-92267693D01*
X92702951Y-92267693D02*
X92798189Y-92267693D01*
X92798189Y-92267693D02*
X92941046Y-92220074D01*
X92941046Y-92220074D02*
X93512475Y-91648646D01*
X93512475Y-91648646D02*
X93512475Y-92267693D01*
X92512475Y-92886741D02*
X92512475Y-92981979D01*
X92512475Y-92981979D02*
X92560094Y-93077217D01*
X92560094Y-93077217D02*
X92607713Y-93124836D01*
X92607713Y-93124836D02*
X92702951Y-93172455D01*
X92702951Y-93172455D02*
X92893427Y-93220074D01*
X92893427Y-93220074D02*
X93131522Y-93220074D01*
X93131522Y-93220074D02*
X93321998Y-93172455D01*
X93321998Y-93172455D02*
X93417236Y-93124836D01*
X93417236Y-93124836D02*
X93464856Y-93077217D01*
X93464856Y-93077217D02*
X93512475Y-92981979D01*
X93512475Y-92981979D02*
X93512475Y-92886741D01*
X93512475Y-92886741D02*
X93464856Y-92791503D01*
X93464856Y-92791503D02*
X93417236Y-92743884D01*
X93417236Y-92743884D02*
X93321998Y-92696265D01*
X93321998Y-92696265D02*
X93131522Y-92648646D01*
X93131522Y-92648646D02*
X92893427Y-92648646D01*
X92893427Y-92648646D02*
X92702951Y-92696265D01*
X92702951Y-92696265D02*
X92607713Y-92743884D01*
X92607713Y-92743884D02*
X92560094Y-92791503D01*
X92560094Y-92791503D02*
X92512475Y-92886741D01*
X92607713Y-93601027D02*
X92560094Y-93648646D01*
X92560094Y-93648646D02*
X92512475Y-93743884D01*
X92512475Y-93743884D02*
X92512475Y-93981979D01*
X92512475Y-93981979D02*
X92560094Y-94077217D01*
X92560094Y-94077217D02*
X92607713Y-94124836D01*
X92607713Y-94124836D02*
X92702951Y-94172455D01*
X92702951Y-94172455D02*
X92798189Y-94172455D01*
X92798189Y-94172455D02*
X92941046Y-94124836D01*
X92941046Y-94124836D02*
X93512475Y-93553408D01*
X93512475Y-93553408D02*
X93512475Y-94172455D01*
X92512475Y-95029598D02*
X92512475Y-94839122D01*
X92512475Y-94839122D02*
X92560094Y-94743884D01*
X92560094Y-94743884D02*
X92607713Y-94696265D01*
X92607713Y-94696265D02*
X92750570Y-94601027D01*
X92750570Y-94601027D02*
X92941046Y-94553408D01*
X92941046Y-94553408D02*
X93321998Y-94553408D01*
X93321998Y-94553408D02*
X93417236Y-94601027D01*
X93417236Y-94601027D02*
X93464856Y-94648646D01*
X93464856Y-94648646D02*
X93512475Y-94743884D01*
X93512475Y-94743884D02*
X93512475Y-94934360D01*
X93512475Y-94934360D02*
X93464856Y-95029598D01*
X93464856Y-95029598D02*
X93417236Y-95077217D01*
X93417236Y-95077217D02*
X93321998Y-95124836D01*
X93321998Y-95124836D02*
X93083903Y-95124836D01*
X93083903Y-95124836D02*
X92988665Y-95077217D01*
X92988665Y-95077217D02*
X92941046Y-95029598D01*
X92941046Y-95029598D02*
X92893427Y-94934360D01*
X92893427Y-94934360D02*
X92893427Y-94743884D01*
X92893427Y-94743884D02*
X92941046Y-94648646D01*
X92941046Y-94648646D02*
X92988665Y-94601027D01*
X92988665Y-94601027D02*
X93083903Y-94553408D01*
X92512475Y-95743884D02*
X92512475Y-95839122D01*
X92512475Y-95839122D02*
X92560094Y-95934360D01*
X92560094Y-95934360D02*
X92607713Y-95981979D01*
X92607713Y-95981979D02*
X92702951Y-96029598D01*
X92702951Y-96029598D02*
X92893427Y-96077217D01*
X92893427Y-96077217D02*
X93131522Y-96077217D01*
X93131522Y-96077217D02*
X93321998Y-96029598D01*
X93321998Y-96029598D02*
X93417236Y-95981979D01*
X93417236Y-95981979D02*
X93464856Y-95934360D01*
X93464856Y-95934360D02*
X93512475Y-95839122D01*
X93512475Y-95839122D02*
X93512475Y-95743884D01*
X93512475Y-95743884D02*
X93464856Y-95648646D01*
X93464856Y-95648646D02*
X93417236Y-95601027D01*
X93417236Y-95601027D02*
X93321998Y-95553408D01*
X93321998Y-95553408D02*
X93131522Y-95505789D01*
X93131522Y-95505789D02*
X92893427Y-95505789D01*
X92893427Y-95505789D02*
X92702951Y-95553408D01*
X92702951Y-95553408D02*
X92607713Y-95601027D01*
X92607713Y-95601027D02*
X92560094Y-95648646D01*
X92560094Y-95648646D02*
X92512475Y-95743884D01*
X92512475Y-96410551D02*
X92512475Y-97077217D01*
X92512475Y-97077217D02*
X93512475Y-96648646D01*
X92607713Y-97410551D02*
X92560094Y-97458170D01*
X92560094Y-97458170D02*
X92512475Y-97553408D01*
X92512475Y-97553408D02*
X92512475Y-97791503D01*
X92512475Y-97791503D02*
X92560094Y-97886741D01*
X92560094Y-97886741D02*
X92607713Y-97934360D01*
X92607713Y-97934360D02*
X92702951Y-97981979D01*
X92702951Y-97981979D02*
X92798189Y-97981979D01*
X92798189Y-97981979D02*
X92941046Y-97934360D01*
X92941046Y-97934360D02*
X93512475Y-97362932D01*
X93512475Y-97362932D02*
X93512475Y-97981979D01*
X92512475Y-98886741D02*
X92512475Y-98410551D01*
X92512475Y-98410551D02*
X92988665Y-98362932D01*
X92988665Y-98362932D02*
X92941046Y-98410551D01*
X92941046Y-98410551D02*
X92893427Y-98505789D01*
X92893427Y-98505789D02*
X92893427Y-98743884D01*
X92893427Y-98743884D02*
X92941046Y-98839122D01*
X92941046Y-98839122D02*
X92988665Y-98886741D01*
X92988665Y-98886741D02*
X93083903Y-98934360D01*
X93083903Y-98934360D02*
X93321998Y-98934360D01*
X93321998Y-98934360D02*
X93417236Y-98886741D01*
X93417236Y-98886741D02*
X93464856Y-98839122D01*
X93464856Y-98839122D02*
X93512475Y-98743884D01*
X93512475Y-98743884D02*
X93512475Y-98505789D01*
X93512475Y-98505789D02*
X93464856Y-98410551D01*
X93464856Y-98410551D02*
X93417236Y-98362932D01*
X95122419Y-91743884D02*
X94122419Y-91743884D01*
X94598609Y-91743884D02*
X94598609Y-92315312D01*
X95122419Y-92315312D02*
X94122419Y-92315312D01*
X95122419Y-92934360D02*
X95074800Y-92839122D01*
X95074800Y-92839122D02*
X95027180Y-92791503D01*
X95027180Y-92791503D02*
X94931942Y-92743884D01*
X94931942Y-92743884D02*
X94646228Y-92743884D01*
X94646228Y-92743884D02*
X94550990Y-92791503D01*
X94550990Y-92791503D02*
X94503371Y-92839122D01*
X94503371Y-92839122D02*
X94455752Y-92934360D01*
X94455752Y-92934360D02*
X94455752Y-93077217D01*
X94455752Y-93077217D02*
X94503371Y-93172455D01*
X94503371Y-93172455D02*
X94550990Y-93220074D01*
X94550990Y-93220074D02*
X94646228Y-93267693D01*
X94646228Y-93267693D02*
X94931942Y-93267693D01*
X94931942Y-93267693D02*
X95027180Y-93220074D01*
X95027180Y-93220074D02*
X95074800Y-93172455D01*
X95074800Y-93172455D02*
X95122419Y-93077217D01*
X95122419Y-93077217D02*
X95122419Y-92934360D01*
X95122419Y-93696265D02*
X94455752Y-93696265D01*
X94550990Y-93696265D02*
X94503371Y-93743884D01*
X94503371Y-93743884D02*
X94455752Y-93839122D01*
X94455752Y-93839122D02*
X94455752Y-93981979D01*
X94455752Y-93981979D02*
X94503371Y-94077217D01*
X94503371Y-94077217D02*
X94598609Y-94124836D01*
X94598609Y-94124836D02*
X95122419Y-94124836D01*
X94598609Y-94124836D02*
X94503371Y-94172455D01*
X94503371Y-94172455D02*
X94455752Y-94267693D01*
X94455752Y-94267693D02*
X94455752Y-94410550D01*
X94455752Y-94410550D02*
X94503371Y-94505789D01*
X94503371Y-94505789D02*
X94598609Y-94553408D01*
X94598609Y-94553408D02*
X95122419Y-94553408D01*
X95122419Y-95029598D02*
X94455752Y-95029598D01*
X94122419Y-95029598D02*
X94170038Y-94981979D01*
X94170038Y-94981979D02*
X94217657Y-95029598D01*
X94217657Y-95029598D02*
X94170038Y-95077217D01*
X94170038Y-95077217D02*
X94122419Y-95029598D01*
X94122419Y-95029598D02*
X94217657Y-95029598D01*
X94455752Y-95505788D02*
X95122419Y-95505788D01*
X94550990Y-95505788D02*
X94503371Y-95553407D01*
X94503371Y-95553407D02*
X94455752Y-95648645D01*
X94455752Y-95648645D02*
X94455752Y-95791502D01*
X94455752Y-95791502D02*
X94503371Y-95886740D01*
X94503371Y-95886740D02*
X94598609Y-95934359D01*
X94598609Y-95934359D02*
X95122419Y-95934359D01*
X95122419Y-97648645D02*
X95122419Y-97172455D01*
X95122419Y-97172455D02*
X94122419Y-97172455D01*
X95074800Y-98362931D02*
X95122419Y-98267693D01*
X95122419Y-98267693D02*
X95122419Y-98077217D01*
X95122419Y-98077217D02*
X95074800Y-97981979D01*
X95074800Y-97981979D02*
X94979561Y-97934360D01*
X94979561Y-97934360D02*
X94598609Y-97934360D01*
X94598609Y-97934360D02*
X94503371Y-97981979D01*
X94503371Y-97981979D02*
X94455752Y-98077217D01*
X94455752Y-98077217D02*
X94455752Y-98267693D01*
X94455752Y-98267693D02*
X94503371Y-98362931D01*
X94503371Y-98362931D02*
X94598609Y-98410550D01*
X94598609Y-98410550D02*
X94693847Y-98410550D01*
X94693847Y-98410550D02*
X94789085Y-97934360D01*
X95074800Y-99220074D02*
X95122419Y-99124836D01*
X95122419Y-99124836D02*
X95122419Y-98934360D01*
X95122419Y-98934360D02*
X95074800Y-98839122D01*
X95074800Y-98839122D02*
X94979561Y-98791503D01*
X94979561Y-98791503D02*
X94598609Y-98791503D01*
X94598609Y-98791503D02*
X94503371Y-98839122D01*
X94503371Y-98839122D02*
X94455752Y-98934360D01*
X94455752Y-98934360D02*
X94455752Y-99124836D01*
X94455752Y-99124836D02*
X94503371Y-99220074D01*
X94503371Y-99220074D02*
X94598609Y-99267693D01*
X94598609Y-99267693D02*
X94693847Y-99267693D01*
X94693847Y-99267693D02*
X94789085Y-98791503D01*
X94455752Y-101220075D02*
X94741466Y-100458170D01*
X94741466Y-100458170D02*
X95027180Y-101220075D01*
X95122419Y-101696265D02*
X94455752Y-101696265D01*
X94122419Y-101696265D02*
X94170038Y-101648646D01*
X94170038Y-101648646D02*
X94217657Y-101696265D01*
X94217657Y-101696265D02*
X94170038Y-101743884D01*
X94170038Y-101743884D02*
X94122419Y-101696265D01*
X94122419Y-101696265D02*
X94217657Y-101696265D01*
X94646228Y-102791502D02*
X94598609Y-102743883D01*
X94598609Y-102743883D02*
X94550990Y-102648645D01*
X94550990Y-102648645D02*
X94550990Y-102553407D01*
X94550990Y-102553407D02*
X94598609Y-102458169D01*
X94598609Y-102458169D02*
X94646228Y-102410550D01*
X94646228Y-102410550D02*
X94741466Y-102362931D01*
X94741466Y-102362931D02*
X94836704Y-102362931D01*
X94836704Y-102362931D02*
X94931942Y-102410550D01*
X94931942Y-102410550D02*
X94979561Y-102458169D01*
X94979561Y-102458169D02*
X95027180Y-102553407D01*
X95027180Y-102553407D02*
X95027180Y-102648645D01*
X95027180Y-102648645D02*
X94979561Y-102743883D01*
X94979561Y-102743883D02*
X94931942Y-102791502D01*
X94550990Y-102791502D02*
X94931942Y-102791502D01*
X94931942Y-102791502D02*
X94979561Y-102839121D01*
X94979561Y-102839121D02*
X94979561Y-102886740D01*
X94979561Y-102886740D02*
X94931942Y-102981979D01*
X94931942Y-102981979D02*
X94836704Y-103029598D01*
X94836704Y-103029598D02*
X94598609Y-103029598D01*
X94598609Y-103029598D02*
X94455752Y-102934360D01*
X94455752Y-102934360D02*
X94360514Y-102791502D01*
X94360514Y-102791502D02*
X94312895Y-102601026D01*
X94312895Y-102601026D02*
X94360514Y-102410550D01*
X94360514Y-102410550D02*
X94455752Y-102267693D01*
X94455752Y-102267693D02*
X94598609Y-102172455D01*
X94598609Y-102172455D02*
X94789085Y-102124836D01*
X94789085Y-102124836D02*
X94979561Y-102172455D01*
X94979561Y-102172455D02*
X95122419Y-102267693D01*
X95122419Y-102267693D02*
X95217657Y-102410550D01*
X95217657Y-102410550D02*
X95265276Y-102601026D01*
X95265276Y-102601026D02*
X95217657Y-102791502D01*
X95217657Y-102791502D02*
X95122419Y-102934360D01*
X95122419Y-103458169D02*
X94122419Y-103458169D01*
X95122419Y-103886740D02*
X94598609Y-103886740D01*
X94598609Y-103886740D02*
X94503371Y-103839121D01*
X94503371Y-103839121D02*
X94455752Y-103743883D01*
X94455752Y-103743883D02*
X94455752Y-103601026D01*
X94455752Y-103601026D02*
X94503371Y-103505788D01*
X94503371Y-103505788D02*
X94550990Y-103458169D01*
X95122419Y-104505788D02*
X95074800Y-104410550D01*
X95074800Y-104410550D02*
X95027180Y-104362931D01*
X95027180Y-104362931D02*
X94931942Y-104315312D01*
X94931942Y-104315312D02*
X94646228Y-104315312D01*
X94646228Y-104315312D02*
X94550990Y-104362931D01*
X94550990Y-104362931D02*
X94503371Y-104410550D01*
X94503371Y-104410550D02*
X94455752Y-104505788D01*
X94455752Y-104505788D02*
X94455752Y-104648645D01*
X94455752Y-104648645D02*
X94503371Y-104743883D01*
X94503371Y-104743883D02*
X94550990Y-104791502D01*
X94550990Y-104791502D02*
X94646228Y-104839121D01*
X94646228Y-104839121D02*
X94931942Y-104839121D01*
X94931942Y-104839121D02*
X95027180Y-104791502D01*
X95027180Y-104791502D02*
X95074800Y-104743883D01*
X95074800Y-104743883D02*
X95122419Y-104648645D01*
X95122419Y-104648645D02*
X95122419Y-104505788D01*
X95122419Y-105267693D02*
X94455752Y-105267693D01*
X94550990Y-105267693D02*
X94503371Y-105315312D01*
X94503371Y-105315312D02*
X94455752Y-105410550D01*
X94455752Y-105410550D02*
X94455752Y-105553407D01*
X94455752Y-105553407D02*
X94503371Y-105648645D01*
X94503371Y-105648645D02*
X94598609Y-105696264D01*
X94598609Y-105696264D02*
X95122419Y-105696264D01*
X94598609Y-105696264D02*
X94503371Y-105743883D01*
X94503371Y-105743883D02*
X94455752Y-105839121D01*
X94455752Y-105839121D02*
X94455752Y-105981978D01*
X94455752Y-105981978D02*
X94503371Y-106077217D01*
X94503371Y-106077217D02*
X94598609Y-106124836D01*
X94598609Y-106124836D02*
X95122419Y-106124836D01*
X95122419Y-106601026D02*
X94455752Y-106601026D01*
X94122419Y-106601026D02*
X94170038Y-106553407D01*
X94170038Y-106553407D02*
X94217657Y-106601026D01*
X94217657Y-106601026D02*
X94170038Y-106648645D01*
X94170038Y-106648645D02*
X94122419Y-106601026D01*
X94122419Y-106601026D02*
X94217657Y-106601026D01*
X94455752Y-107077216D02*
X95122419Y-107077216D01*
X94550990Y-107077216D02*
X94503371Y-107124835D01*
X94503371Y-107124835D02*
X94455752Y-107220073D01*
X94455752Y-107220073D02*
X94455752Y-107362930D01*
X94455752Y-107362930D02*
X94503371Y-107458168D01*
X94503371Y-107458168D02*
X94598609Y-107505787D01*
X94598609Y-107505787D02*
X95122419Y-107505787D01*
X95027180Y-107981978D02*
X95074800Y-108029597D01*
X95074800Y-108029597D02*
X95122419Y-107981978D01*
X95122419Y-107981978D02*
X95074800Y-107934359D01*
X95074800Y-107934359D02*
X95027180Y-107981978D01*
X95027180Y-107981978D02*
X95122419Y-107981978D01*
X95122419Y-108886739D02*
X94122419Y-108886739D01*
X95074800Y-108886739D02*
X95122419Y-108791501D01*
X95122419Y-108791501D02*
X95122419Y-108601025D01*
X95122419Y-108601025D02*
X95074800Y-108505787D01*
X95074800Y-108505787D02*
X95027180Y-108458168D01*
X95027180Y-108458168D02*
X94931942Y-108410549D01*
X94931942Y-108410549D02*
X94646228Y-108410549D01*
X94646228Y-108410549D02*
X94550990Y-108458168D01*
X94550990Y-108458168D02*
X94503371Y-108505787D01*
X94503371Y-108505787D02*
X94455752Y-108601025D01*
X94455752Y-108601025D02*
X94455752Y-108791501D01*
X94455752Y-108791501D02*
X94503371Y-108886739D01*
X95074800Y-109743882D02*
X95122419Y-109648644D01*
X95122419Y-109648644D02*
X95122419Y-109458168D01*
X95122419Y-109458168D02*
X95074800Y-109362930D01*
X95074800Y-109362930D02*
X94979561Y-109315311D01*
X94979561Y-109315311D02*
X94598609Y-109315311D01*
X94598609Y-109315311D02*
X94503371Y-109362930D01*
X94503371Y-109362930D02*
X94455752Y-109458168D01*
X94455752Y-109458168D02*
X94455752Y-109648644D01*
X94455752Y-109648644D02*
X94503371Y-109743882D01*
X94503371Y-109743882D02*
X94598609Y-109791501D01*
X94598609Y-109791501D02*
X94693847Y-109791501D01*
X94693847Y-109791501D02*
X94789085Y-109315311D01*
X94455752Y-110124835D02*
X95122419Y-110362930D01*
X95122419Y-110362930D02*
X94455752Y-110601025D01*
X94455752Y-110981978D02*
X94741466Y-111743883D01*
X94741466Y-111743883D02*
X95027180Y-110981978D01*
X119840476Y-106730580D02*
X119840476Y-107730580D01*
X119840476Y-107730580D02*
X120173809Y-107016295D01*
X120173809Y-107016295D02*
X120507142Y-107730580D01*
X120507142Y-107730580D02*
X120507142Y-106730580D01*
X121507142Y-106730580D02*
X120935714Y-106730580D01*
X121221428Y-106730580D02*
X121221428Y-107730580D01*
X121221428Y-107730580D02*
X121126190Y-107587723D01*
X121126190Y-107587723D02*
X121030952Y-107492485D01*
X121030952Y-107492485D02*
X120935714Y-107444866D01*
D11*
X148153333Y-109414819D02*
X148153333Y-110129104D01*
X148153333Y-110129104D02*
X148200952Y-110271961D01*
X148200952Y-110271961D02*
X148296190Y-110367200D01*
X148296190Y-110367200D02*
X148439047Y-110414819D01*
X148439047Y-110414819D02*
X148534285Y-110414819D01*
X147677142Y-110414819D02*
X147677142Y-109414819D01*
X147677142Y-109414819D02*
X147296190Y-109414819D01*
X147296190Y-109414819D02*
X147200952Y-109462438D01*
X147200952Y-109462438D02*
X147153333Y-109510057D01*
X147153333Y-109510057D02*
X147105714Y-109605295D01*
X147105714Y-109605295D02*
X147105714Y-109748152D01*
X147105714Y-109748152D02*
X147153333Y-109843390D01*
X147153333Y-109843390D02*
X147200952Y-109891009D01*
X147200952Y-109891009D02*
X147296190Y-109938628D01*
X147296190Y-109938628D02*
X147677142Y-109938628D01*
X146153333Y-110414819D02*
X146724761Y-110414819D01*
X146439047Y-110414819D02*
X146439047Y-109414819D01*
X146439047Y-109414819D02*
X146534285Y-109557676D01*
X146534285Y-109557676D02*
X146629523Y-109652914D01*
X146629523Y-109652914D02*
X146724761Y-109700533D01*
X145053332Y-111214819D02*
X144434285Y-111214819D01*
X144434285Y-111214819D02*
X144767618Y-111595771D01*
X144767618Y-111595771D02*
X144624761Y-111595771D01*
X144624761Y-111595771D02*
X144529523Y-111643390D01*
X144529523Y-111643390D02*
X144481904Y-111691009D01*
X144481904Y-111691009D02*
X144434285Y-111786247D01*
X144434285Y-111786247D02*
X144434285Y-112024342D01*
X144434285Y-112024342D02*
X144481904Y-112119580D01*
X144481904Y-112119580D02*
X144529523Y-112167200D01*
X144529523Y-112167200D02*
X144624761Y-112214819D01*
X144624761Y-112214819D02*
X144910475Y-112214819D01*
X144910475Y-112214819D02*
X145005713Y-112167200D01*
X145005713Y-112167200D02*
X145053332Y-112119580D01*
X149634285Y-112214819D02*
X150205713Y-112214819D01*
X149919999Y-112214819D02*
X149919999Y-111214819D01*
X149919999Y-111214819D02*
X150015237Y-111357676D01*
X150015237Y-111357676D02*
X150110475Y-111452914D01*
X150110475Y-111452914D02*
X150205713Y-111500533D01*
X155968333Y-84809819D02*
X155968333Y-85524104D01*
X155968333Y-85524104D02*
X156015952Y-85666961D01*
X156015952Y-85666961D02*
X156111190Y-85762200D01*
X156111190Y-85762200D02*
X156254047Y-85809819D01*
X156254047Y-85809819D02*
X156349285Y-85809819D01*
X154968333Y-85809819D02*
X155539761Y-85809819D01*
X155254047Y-85809819D02*
X155254047Y-84809819D01*
X155254047Y-84809819D02*
X155349285Y-84952676D01*
X155349285Y-84952676D02*
X155444523Y-85047914D01*
X155444523Y-85047914D02*
X155539761Y-85095533D01*
%TO.C,M1*%
D10*
X110490000Y-95504000D02*
X111760000Y-95504000D01*
X111760000Y-95504000D02*
X111760000Y-94234000D01*
X129540000Y-95504000D02*
X129540000Y-94234000D01*
X130810000Y-95504000D02*
X129540000Y-95504000D01*
%TO.C,JP1*%
D12*
X145270000Y-111460000D02*
X145270000Y-112060000D01*
X145920000Y-112760000D02*
X148720000Y-112760000D01*
X148720000Y-110760000D02*
X145920000Y-110760000D01*
X149370000Y-112060000D02*
X149370000Y-111460000D01*
X145270000Y-111460000D02*
G75*
G02*
X145970000Y-110760000I700000J0D01*
G01*
X145970000Y-112760000D02*
G75*
G02*
X145270000Y-112060000I0J700000D01*
G01*
X148670000Y-110760000D02*
G75*
G02*
X149370000Y-111460000I1J-699999D01*
G01*
X149370000Y-112060000D02*
G75*
G02*
X148670000Y-112760000I-699999J-1D01*
G01*
%TO.C,J1*%
X149870000Y-89735000D02*
X149870000Y-90595000D01*
X149870000Y-90595000D02*
X155870000Y-90595000D01*
X155870000Y-89735000D02*
X149870000Y-89735000D01*
X158630000Y-88895000D02*
X155870000Y-88895000D01*
X158860000Y-87195000D02*
X158630000Y-87195000D01*
X158860000Y-88055000D02*
X158630000Y-88055000D01*
X158942642Y-89735000D02*
X158630000Y-89735000D01*
X158942642Y-90595000D02*
X158630000Y-90595000D01*
X161290000Y-86355000D02*
X160020000Y-86355000D01*
X161290000Y-87625000D02*
X161290000Y-86355000D01*
X149870000Y-87195000D02*
X155870000Y-87195000D01*
X155870000Y-88055000D01*
X149870000Y-88055000D01*
X149870000Y-87195000D01*
G36*
X149870000Y-87195000D02*
G01*
X155870000Y-87195000D01*
X155870000Y-88055000D01*
X149870000Y-88055000D01*
X149870000Y-87195000D01*
G37*
X155870000Y-86245000D02*
X158630000Y-86245000D01*
X158630000Y-91545000D01*
X155870000Y-91545000D01*
X155870000Y-86245000D01*
%TD*%
M02*
