%TF.GenerationSoftware,KiCad,Pcbnew,10.0.0*%
%TF.CreationDate,2026-07-26T07:02:41+09:00*%
%TF.ProjectId,metric-gauge,65737033-322d-4647-9561-6c2d67617567,rev?*%
%TF.SameCoordinates,Original*%
%TF.FileFunction,Soldermask,Bot*%
%TF.FilePolarity,Negative*%
%FSLAX46Y46*%
G04 Gerber Fmt 4.6, Leading zero omitted, Abs format (unit mm)*
G04 Created by KiCad (PCBNEW 10.0.0) date 2026-07-26 07:02:41*
%MOMM*%
%LPD*%
G01*
G04 APERTURE LIST*
G04 Aperture macros list*
%AMRoundRect*
0 Rectangle with rounded corners*
0 $1 Rounding radius*
0 $2 $3 $4 $5 $6 $7 $8 $9 X,Y pos of 4 corners*
0 Add a 4 corners polygon primitive as box body*
4,1,4,$2,$3,$4,$5,$6,$7,$8,$9,$2,$3,0*
0 Add four circle primitives for the rounded corners*
1,1,$1+$1,$2,$3*
1,1,$1+$1,$4,$5*
1,1,$1+$1,$6,$7*
1,1,$1+$1,$8,$9*
0 Add four rect primitives between the rounded corners*
20,1,$1+$1,$2,$3,$4,$5,0*
20,1,$1+$1,$4,$5,$6,$7,0*
20,1,$1+$1,$6,$7,$8,$9,0*
20,1,$1+$1,$8,$9,$2,$3,0*%
%AMFreePoly0*
4,1,23,0.550000,-0.750000,0.000000,-0.750000,0.000000,-0.745722,-0.065263,-0.745722,-0.191342,-0.711940,-0.304381,-0.646677,-0.396677,-0.554381,-0.461940,-0.441342,-0.495722,-0.315263,-0.495722,-0.250000,-0.500000,-0.250000,-0.500000,0.250000,-0.495722,0.250000,-0.495722,0.315263,-0.461940,0.441342,-0.396677,0.554381,-0.304381,0.646677,-0.191342,0.711940,-0.065263,0.745722,0.000000,0.745722,
0.000000,0.750000,0.550000,0.750000,0.550000,-0.750000,0.550000,-0.750000,$1*%
%AMFreePoly1*
4,1,23,0.000000,0.745722,0.065263,0.745722,0.191342,0.711940,0.304381,0.646677,0.396677,0.554381,0.461940,0.441342,0.495722,0.315263,0.495722,0.250000,0.500000,0.250000,0.500000,-0.250000,0.495722,-0.250000,0.495722,-0.315263,0.461940,-0.441342,0.396677,-0.554381,0.304381,-0.646677,0.191342,-0.711940,0.065263,-0.745722,0.000000,-0.745722,0.000000,-0.750000,-0.550000,-0.750000,
-0.550000,0.750000,0.000000,0.750000,0.000000,0.745722,0.000000,0.745722,$1*%
G04 Aperture macros list end*
%ADD10C,2.100000*%
%ADD11R,1.270000X2.540000*%
%ADD12O,1.270000X2.540000*%
%ADD13C,3.200000*%
%ADD14RoundRect,0.381000X-1.619000X-0.381000X1.619000X-0.381000X1.619000X0.381000X-1.619000X0.381000X0*%
%ADD15FreePoly0,180.000000*%
%ADD16R,1.000000X1.500000*%
%ADD17FreePoly1,180.000000*%
%ADD18R,1.700000X1.700000*%
%ADD19C,1.700000*%
G04 APERTURE END LIST*
%TO.C,JP1*%
G36*
X146570000Y-111010000D02*
G01*
X148070000Y-111010000D01*
X148070000Y-112510000D01*
X146570000Y-112510000D01*
X146570000Y-111010000D01*
G37*
%TD*%
D10*
%TO.C,H8*%
X158750000Y-100330000D03*
%TD*%
%TO.C,H7*%
X82550000Y-100330000D03*
%TD*%
D11*
%TO.C,U1*%
X92710000Y-79830000D03*
D12*
X95250000Y-79830000D03*
X97790000Y-79830000D03*
X100330000Y-79830000D03*
X102870000Y-79830000D03*
X105410000Y-79830000D03*
X107950000Y-79830000D03*
X110490000Y-79830000D03*
%TD*%
%TO.C,U2*%
X148590000Y-79830000D03*
X146050000Y-79830000D03*
X143510000Y-79830000D03*
X140970000Y-79830000D03*
X138430000Y-79830000D03*
X135890000Y-79830000D03*
X133350000Y-79830000D03*
D11*
X130810000Y-79830000D03*
%TD*%
D13*
%TO.C,H3*%
X81280000Y-121285000D03*
%TD*%
%TO.C,H2*%
X81280000Y-79375000D03*
%TD*%
%TO.C,H4*%
X160020000Y-121285000D03*
%TD*%
%TO.C,H1*%
X160020000Y-79375000D03*
%TD*%
D14*
%TO.C,M1*%
X129650000Y-98900000D03*
X129650000Y-101440000D03*
X129650000Y-103980000D03*
X129650000Y-106520000D03*
X129650000Y-111600000D03*
X129650000Y-109060000D03*
X111650000Y-116680000D03*
X129650000Y-116660000D03*
X111650000Y-114140000D03*
X111650000Y-111600000D03*
X111650000Y-109060000D03*
X111650000Y-106520000D03*
X111650000Y-103980000D03*
X111650000Y-101440000D03*
X111650000Y-98900000D03*
X129650000Y-114140000D03*
%TD*%
D15*
%TO.C,JP1*%
X148620000Y-111760000D03*
D16*
X147320000Y-111760000D03*
D17*
X146020000Y-111760000D03*
%TD*%
D18*
%TO.C,J1*%
X160020000Y-87625000D03*
D19*
X160020000Y-90165000D03*
%TD*%
M02*
