%TF.GenerationSoftware,KiCad,Pcbnew,10.0.0*%
%TF.CreationDate,2026-08-13T00:34:45+09:00*%
%TF.ProjectId,metric-gauge,6d657472-6963-42d6-9761-7567652e6b69,rev?*%
%TF.SameCoordinates,Original*%
%TF.FileFunction,Legend,Top*%
%TF.FilePolarity,Positive*%
%FSLAX46Y46*%
G04 Gerber Fmt 4.6, Leading zero omitted, Abs format (unit mm)*
G04 Created by KiCad (PCBNEW 10.0.0) date 2026-08-13 00:34:45*
%MOMM*%
%LPD*%
G01*
G04 APERTURE LIST*
%ADD10C,0.150000*%
%ADD11C,0.100000*%
G04 APERTURE END LIST*
D10*
X80518095Y-117589819D02*
X80518095Y-116589819D01*
X80518095Y-117066009D02*
X81089523Y-117066009D01*
X81089523Y-117589819D02*
X81089523Y-116589819D01*
X81470476Y-116589819D02*
X82089523Y-116589819D01*
X82089523Y-116589819D02*
X81756190Y-116970771D01*
X81756190Y-116970771D02*
X81899047Y-116970771D01*
X81899047Y-116970771D02*
X81994285Y-117018390D01*
X81994285Y-117018390D02*
X82041904Y-117066009D01*
X82041904Y-117066009D02*
X82089523Y-117161247D01*
X82089523Y-117161247D02*
X82089523Y-117399342D01*
X82089523Y-117399342D02*
X82041904Y-117494580D01*
X82041904Y-117494580D02*
X81994285Y-117542200D01*
X81994285Y-117542200D02*
X81899047Y-117589819D01*
X81899047Y-117589819D02*
X81613333Y-117589819D01*
X81613333Y-117589819D02*
X81518095Y-117542200D01*
X81518095Y-117542200D02*
X81470476Y-117494580D01*
X80518095Y-75679819D02*
X80518095Y-74679819D01*
X80518095Y-75156009D02*
X81089523Y-75156009D01*
X81089523Y-75679819D02*
X81089523Y-74679819D01*
X81518095Y-74775057D02*
X81565714Y-74727438D01*
X81565714Y-74727438D02*
X81660952Y-74679819D01*
X81660952Y-74679819D02*
X81899047Y-74679819D01*
X81899047Y-74679819D02*
X81994285Y-74727438D01*
X81994285Y-74727438D02*
X82041904Y-74775057D01*
X82041904Y-74775057D02*
X82089523Y-74870295D01*
X82089523Y-74870295D02*
X82089523Y-74965533D01*
X82089523Y-74965533D02*
X82041904Y-75108390D01*
X82041904Y-75108390D02*
X81470476Y-75679819D01*
X81470476Y-75679819D02*
X82089523Y-75679819D01*
X157988095Y-111704819D02*
X157988095Y-110704819D01*
X157988095Y-111181009D02*
X158559523Y-111181009D01*
X158559523Y-111704819D02*
X158559523Y-110704819D01*
X159178571Y-111133390D02*
X159083333Y-111085771D01*
X159083333Y-111085771D02*
X159035714Y-111038152D01*
X159035714Y-111038152D02*
X158988095Y-110942914D01*
X158988095Y-110942914D02*
X158988095Y-110895295D01*
X158988095Y-110895295D02*
X159035714Y-110800057D01*
X159035714Y-110800057D02*
X159083333Y-110752438D01*
X159083333Y-110752438D02*
X159178571Y-110704819D01*
X159178571Y-110704819D02*
X159369047Y-110704819D01*
X159369047Y-110704819D02*
X159464285Y-110752438D01*
X159464285Y-110752438D02*
X159511904Y-110800057D01*
X159511904Y-110800057D02*
X159559523Y-110895295D01*
X159559523Y-110895295D02*
X159559523Y-110942914D01*
X159559523Y-110942914D02*
X159511904Y-111038152D01*
X159511904Y-111038152D02*
X159464285Y-111085771D01*
X159464285Y-111085771D02*
X159369047Y-111133390D01*
X159369047Y-111133390D02*
X159178571Y-111133390D01*
X159178571Y-111133390D02*
X159083333Y-111181009D01*
X159083333Y-111181009D02*
X159035714Y-111228628D01*
X159035714Y-111228628D02*
X158988095Y-111323866D01*
X158988095Y-111323866D02*
X158988095Y-111514342D01*
X158988095Y-111514342D02*
X159035714Y-111609580D01*
X159035714Y-111609580D02*
X159083333Y-111657200D01*
X159083333Y-111657200D02*
X159178571Y-111704819D01*
X159178571Y-111704819D02*
X159369047Y-111704819D01*
X159369047Y-111704819D02*
X159464285Y-111657200D01*
X159464285Y-111657200D02*
X159511904Y-111609580D01*
X159511904Y-111609580D02*
X159559523Y-111514342D01*
X159559523Y-111514342D02*
X159559523Y-111323866D01*
X159559523Y-111323866D02*
X159511904Y-111228628D01*
X159511904Y-111228628D02*
X159464285Y-111181009D01*
X159464285Y-111181009D02*
X159369047Y-111133390D01*
D11*
X138938095Y-99287419D02*
X138938095Y-100096942D01*
X138938095Y-100096942D02*
X138985714Y-100192180D01*
X138985714Y-100192180D02*
X139033333Y-100239800D01*
X139033333Y-100239800D02*
X139128571Y-100287419D01*
X139128571Y-100287419D02*
X139319047Y-100287419D01*
X139319047Y-100287419D02*
X139414285Y-100239800D01*
X139414285Y-100239800D02*
X139461904Y-100192180D01*
X139461904Y-100192180D02*
X139509523Y-100096942D01*
X139509523Y-100096942D02*
X139509523Y-99287419D01*
X139938095Y-99382657D02*
X139985714Y-99335038D01*
X139985714Y-99335038D02*
X140080952Y-99287419D01*
X140080952Y-99287419D02*
X140319047Y-99287419D01*
X140319047Y-99287419D02*
X140414285Y-99335038D01*
X140414285Y-99335038D02*
X140461904Y-99382657D01*
X140461904Y-99382657D02*
X140509523Y-99477895D01*
X140509523Y-99477895D02*
X140509523Y-99573133D01*
X140509523Y-99573133D02*
X140461904Y-99715990D01*
X140461904Y-99715990D02*
X139890476Y-100287419D01*
X139890476Y-100287419D02*
X140509523Y-100287419D01*
D10*
X159258095Y-117589819D02*
X159258095Y-116589819D01*
X159258095Y-117066009D02*
X159829523Y-117066009D01*
X159829523Y-117589819D02*
X159829523Y-116589819D01*
X160734285Y-116923152D02*
X160734285Y-117589819D01*
X160496190Y-116542200D02*
X160258095Y-117256485D01*
X160258095Y-117256485D02*
X160877142Y-117256485D01*
D11*
X100838095Y-99287419D02*
X100838095Y-100096942D01*
X100838095Y-100096942D02*
X100885714Y-100192180D01*
X100885714Y-100192180D02*
X100933333Y-100239800D01*
X100933333Y-100239800D02*
X101028571Y-100287419D01*
X101028571Y-100287419D02*
X101219047Y-100287419D01*
X101219047Y-100287419D02*
X101314285Y-100239800D01*
X101314285Y-100239800D02*
X101361904Y-100192180D01*
X101361904Y-100192180D02*
X101409523Y-100096942D01*
X101409523Y-100096942D02*
X101409523Y-99287419D01*
X102409523Y-100287419D02*
X101838095Y-100287419D01*
X102123809Y-100287419D02*
X102123809Y-99287419D01*
X102123809Y-99287419D02*
X102028571Y-99430276D01*
X102028571Y-99430276D02*
X101933333Y-99525514D01*
X101933333Y-99525514D02*
X101838095Y-99573133D01*
D10*
X81788095Y-111704819D02*
X81788095Y-110704819D01*
X81788095Y-111181009D02*
X82359523Y-111181009D01*
X82359523Y-111704819D02*
X82359523Y-110704819D01*
X82740476Y-110704819D02*
X83407142Y-110704819D01*
X83407142Y-110704819D02*
X82978571Y-111704819D01*
X159258095Y-75679819D02*
X159258095Y-74679819D01*
X159258095Y-75156009D02*
X159829523Y-75156009D01*
X159829523Y-75679819D02*
X159829523Y-74679819D01*
X160829523Y-75679819D02*
X160258095Y-75679819D01*
X160543809Y-75679819D02*
X160543809Y-74679819D01*
X160543809Y-74679819D02*
X160448571Y-74822676D01*
X160448571Y-74822676D02*
X160353333Y-74917914D01*
X160353333Y-74917914D02*
X160258095Y-74965533D01*
%TO.C,U2*%
D11*
X121700000Y-83330000D02*
X121700000Y-83330000D01*
G75*
G02*
X126700000Y-78330000I5000000J0D01*
G01*
X152700000Y-78330000D01*
G75*
G02*
X157700000Y-83330000I0J-5000000D01*
G01*
X157700000Y-117330000D01*
G75*
G02*
X152700000Y-122330000I-5000000J0D01*
G01*
X126700000Y-122330000D01*
G75*
G02*
X121700000Y-117330000I0J5000000D01*
G01*
X121700000Y-83330000D01*
X155900000Y-100330000D02*
G75*
G02*
X123500000Y-100330000I-16200000J0D01*
G01*
X123500000Y-100330000D02*
G75*
G02*
X155900000Y-100330000I16200000J0D01*
G01*
%TO.C,U1*%
X83600000Y-83330000D02*
X83600000Y-83330000D01*
G75*
G02*
X88600000Y-78330000I5000000J0D01*
G01*
X114600000Y-78330000D01*
G75*
G02*
X119600000Y-83330000I0J-5000000D01*
G01*
X119600000Y-117330000D01*
G75*
G02*
X114600000Y-122330000I-5000000J0D01*
G01*
X88600000Y-122330000D01*
G75*
G02*
X83600000Y-117330000I0J5000000D01*
G01*
X83600000Y-83330000D01*
X117800000Y-100330000D02*
G75*
G02*
X85400000Y-100330000I-16200000J0D01*
G01*
X85400000Y-100330000D02*
G75*
G02*
X117800000Y-100330000I16200000J0D01*
G01*
%TD*%
M02*
