M48
; DRILL file KiCad 10.0.0 date 2026-08-13T00:34:49
; FORMAT={-:-/ absolute / metric / decimal}
; #@! TF.CreationDate,2026-08-13T00:34:49+09:00
; #@! TF.GenerationSoftware,Kicad,Pcbnew,10.0.0
; #@! TF.FileFunction,Plated,1,2,PTH
FMAT,2
METRIC
; #@! TA.AperFunction,Plated,PTH,ViaDrill
T1C0.300
; #@! TA.AperFunction,Plated,PTH,ComponentDrill
T2C0.800
; #@! TA.AperFunction,Plated,PTH,ComponentDrill
T3C1.000
%
G90
G05
T1
X91.44Y-106.68
X91.44Y-107.95
X91.44Y-109.22
X91.44Y-110.49
X91.44Y-111.76
X100.33Y-114.3
X101.6Y-111.76
X107.95Y-104.14
X109.22Y-120.65
X109.22Y-121.92
X110.49Y-91.44
X110.49Y-92.71
X110.49Y-93.98
X119.38Y-110.49
X119.38Y-116.84
X121.92Y-107.95
X123.825Y-114.935
X125.73Y-106.68
X125.73Y-107.95
X125.73Y-113.03
X125.73Y-116.84
X132.08Y-91.44
X132.08Y-92.71
X132.08Y-93.98
X132.08Y-120.65
X132.08Y-121.92
X133.35Y-86.13
X133.35Y-102.87
X133.35Y-114.3
X134.62Y-104.14
X134.62Y-107.95
X140.97Y-95.25
X142.24Y-109.22
X142.24Y-111.76
X144.94Y-106.52
X147.32Y-109.22
X149.86Y-93.98
X151.13Y-93.98
T2
X92.71Y-79.83
X95.25Y-79.83
X97.79Y-79.83
X100.33Y-79.83
X102.87Y-79.83
X105.41Y-79.83
X107.95Y-79.83
X110.49Y-79.83
X130.81Y-79.83
X133.35Y-79.83
X135.89Y-79.83
X138.43Y-79.83
X140.97Y-79.83
X143.51Y-79.83
X146.05Y-79.83
X148.59Y-79.83
T3
X160.02Y-87.625
X160.02Y-90.165
M30
